<mxfile host="app.diagrams.net" modified="2023-12-22T06:43:03.721Z" agent="Mozilla/5.0 (Windows NT 10.0; Win64; x64) AppleWebKit/537.36 (KHTML, like Gecko) Chrome/119.0.0.0 Safari/537.36" etag="BcnvRTO3fuTtum-nAwUz" version="22.1.11" type="device" pages="16">
  <diagram name="INTRO" id="gIGTCk87i5PJ-im5GGUL">
    <mxGraphModel dx="1434" dy="746" grid="1" gridSize="10" guides="1" tooltips="1" connect="1" arrows="1" fold="1" page="1" pageScale="1" pageWidth="827" pageHeight="1169" background="#ffffff" math="0" shadow="0">
      <root>
        <mxCell id="iR0G80dBJbPLya942XpC-0" />
        <mxCell id="iR0G80dBJbPLya942XpC-1" parent="iR0G80dBJbPLya942XpC-0" />
        <mxCell id="wYm-lfNjTRHwwCL21fdp-0" value="&lt;font style=&quot;font-size: 32px;&quot;&gt;Алгоритм бота: &lt;br&gt;&lt;br&gt;Электронный паспорт&amp;nbsp;- статус &quot;незавершенный&quot;&lt;br&gt;&lt;br&gt;Общая схема: стр. 2&lt;br&gt;ТС:&amp;nbsp; &amp;nbsp; &amp;nbsp; &amp;nbsp; &amp;nbsp; &amp;nbsp; &amp;nbsp; &amp;nbsp; &amp;nbsp; &amp;nbsp;стр. 3 - 16&lt;br&gt;ШТС:&amp;nbsp; &amp;nbsp; &amp;nbsp; &amp;nbsp; &amp;nbsp; &amp;nbsp; &amp;nbsp; &amp;nbsp; стр. 17 - 29&amp;nbsp;&lt;br&gt;СМ:&amp;nbsp; &amp;nbsp; &amp;nbsp; &amp;nbsp; &amp;nbsp; &amp;nbsp; &amp;nbsp; &amp;nbsp; &amp;nbsp; &amp;nbsp;стр. 30 - 47&amp;nbsp;&lt;/font&gt;" style="text;html=1;strokeColor=none;fillColor=none;align=left;verticalAlign=middle;whiteSpace=wrap;rounded=0;fontColor=#000000;fontSize=24;" parent="iR0G80dBJbPLya942XpC-1" vertex="1">
          <mxGeometry x="40" y="534" width="740" height="30" as="geometry" />
        </mxCell>
      </root>
    </mxGraphModel>
  </diagram>
  <diagram name="Общий_Статус Незавершенный" id="-LqOC0chiN2UG4HLVj2m">
    <mxGraphModel dx="1434" dy="-6268" grid="1" gridSize="10" guides="1" tooltips="1" connect="1" arrows="1" fold="1" page="1" pageScale="1" pageWidth="827" pageHeight="1169" background="#ffffff" math="0" shadow="0">
      <root>
        <mxCell id="bygBoIOWnMYkCNEaqkKK-0" />
        <mxCell id="bygBoIOWnMYkCNEaqkKK-1" parent="bygBoIOWnMYkCNEaqkKK-0" />
        <mxCell id="bygBoIOWnMYkCNEaqkKK-2" value="Электронный паспорт - статус &quot;незавершенный&quot;" style="text;html=1;strokeColor=none;fillColor=none;align=left;verticalAlign=middle;whiteSpace=wrap;rounded=0;fontColor=#000000;fontSize=24;" parent="bygBoIOWnMYkCNEaqkKK-1" vertex="1">
          <mxGeometry y="7023" width="820" height="30" as="geometry" />
        </mxCell>
        <mxCell id="bygBoIOWnMYkCNEaqkKK-5" value="Да" style="edgeStyle=orthogonalEdgeStyle;rounded=0;orthogonalLoop=1;jettySize=auto;html=1;exitX=1;exitY=0.5;exitDx=0;exitDy=0;" parent="bygBoIOWnMYkCNEaqkKK-1" source="2_C3wtge-3Jmh_C_oDH0-0" target="jv5F-BRT1tBqPTO2Uct6-2" edge="1">
          <mxGeometry x="-0.474" relative="1" as="geometry">
            <mxPoint x="100.11999999999989" y="7125" as="sourcePoint" />
            <mxPoint as="offset" />
          </mxGeometry>
        </mxCell>
        <mxCell id="bygBoIOWnMYkCNEaqkKK-20" value="Сценарий 1. ТС" style="edgeStyle=orthogonalEdgeStyle;rounded=0;orthogonalLoop=1;jettySize=auto;html=1;entryX=0;entryY=0.5;entryDx=0;entryDy=0;exitX=0.625;exitY=1;exitDx=0;exitDy=0;" parent="bygBoIOWnMYkCNEaqkKK-1" source="bygBoIOWnMYkCNEaqkKK-48" target="C4iX0L_SmeBbT9ZNSTBG-14" edge="1">
          <mxGeometry x="-0.3812" relative="1" as="geometry">
            <mxPoint as="offset" />
            <mxPoint x="202" y="7594" as="targetPoint" />
          </mxGeometry>
        </mxCell>
        <mxCell id="bygBoIOWnMYkCNEaqkKK-21" value="Сценарий 3. СМ" style="edgeStyle=orthogonalEdgeStyle;rounded=0;orthogonalLoop=1;jettySize=auto;html=1;entryX=0;entryY=0.5;entryDx=0;entryDy=0;exitX=0.625;exitY=0;exitDx=0;exitDy=0;" parent="bygBoIOWnMYkCNEaqkKK-1" source="bygBoIOWnMYkCNEaqkKK-48" target="hk0QY18lUbkI9ywZygTZ-4" edge="1">
          <mxGeometry x="-0.3726" relative="1" as="geometry">
            <mxPoint as="offset" />
            <mxPoint x="629" y="7594" as="targetPoint" />
          </mxGeometry>
        </mxCell>
        <mxCell id="bygBoIOWnMYkCNEaqkKK-22" style="edgeStyle=orthogonalEdgeStyle;rounded=0;orthogonalLoop=1;jettySize=auto;html=1;entryX=0.5;entryY=0;entryDx=0;entryDy=0;exitX=1;exitY=0.5;exitDx=0;exitDy=0;" parent="bygBoIOWnMYkCNEaqkKK-1" source="bygBoIOWnMYkCNEaqkKK-48" target="bygBoIOWnMYkCNEaqkKK-46" edge="1">
          <mxGeometry relative="1" as="geometry">
            <mxPoint x="457" y="7372" as="sourcePoint" />
          </mxGeometry>
        </mxCell>
        <mxCell id="bygBoIOWnMYkCNEaqkKK-23" value="Сценарий 2. ШТС" style="edgeLabel;html=1;align=center;verticalAlign=middle;resizable=0;points=[];" parent="bygBoIOWnMYkCNEaqkKK-22" vertex="1" connectable="0">
          <mxGeometry x="-0.6459" y="-2" relative="1" as="geometry">
            <mxPoint x="2" y="-23" as="offset" />
          </mxGeometry>
        </mxCell>
        <mxCell id="bygBoIOWnMYkCNEaqkKK-29" value="" style="edgeStyle=orthogonalEdgeStyle;rounded=0;orthogonalLoop=1;jettySize=auto;html=1;entryX=0.5;entryY=0;entryDx=0;entryDy=0;exitX=0.625;exitY=1;exitDx=0;exitDy=0;" parent="bygBoIOWnMYkCNEaqkKK-1" source="hk0QY18lUbkI9ywZygTZ-4" target="hk0QY18lUbkI9ywZygTZ-0" edge="1">
          <mxGeometry relative="1" as="geometry">
            <mxPoint x="629" y="7877" as="targetPoint" />
            <mxPoint x="629" y="7825" as="sourcePoint" />
          </mxGeometry>
        </mxCell>
        <mxCell id="bygBoIOWnMYkCNEaqkKK-30" value="Основание 2" style="edgeLabel;html=1;align=center;verticalAlign=middle;resizable=0;points=[];" parent="bygBoIOWnMYkCNEaqkKK-29" vertex="1" connectable="0">
          <mxGeometry x="-0.5733" y="-1" relative="1" as="geometry">
            <mxPoint x="-9" y="23" as="offset" />
          </mxGeometry>
        </mxCell>
        <mxCell id="bygBoIOWnMYkCNEaqkKK-31" style="edgeStyle=orthogonalEdgeStyle;rounded=0;orthogonalLoop=1;jettySize=auto;html=1;entryX=0.5;entryY=0;entryDx=0;entryDy=0;exitX=0.657;exitY=0;exitDx=0;exitDy=0;exitPerimeter=0;" parent="bygBoIOWnMYkCNEaqkKK-1" source="hk0QY18lUbkI9ywZygTZ-4" target="hk0QY18lUbkI9ywZygTZ-1" edge="1">
          <mxGeometry relative="1" as="geometry">
            <mxPoint x="752" y="7877" as="targetPoint" />
            <mxPoint x="669" y="7785" as="sourcePoint" />
            <Array as="points">
              <mxPoint x="690" y="7798" />
            </Array>
          </mxGeometry>
        </mxCell>
        <mxCell id="bygBoIOWnMYkCNEaqkKK-32" value="Основание 3" style="edgeLabel;html=1;align=center;verticalAlign=middle;resizable=0;points=[];" parent="bygBoIOWnMYkCNEaqkKK-31" vertex="1" connectable="0">
          <mxGeometry x="-0.3316" relative="1" as="geometry">
            <mxPoint x="6" y="18" as="offset" />
          </mxGeometry>
        </mxCell>
        <mxCell id="bygBoIOWnMYkCNEaqkKK-33" style="edgeStyle=orthogonalEdgeStyle;rounded=0;orthogonalLoop=1;jettySize=auto;html=1;entryX=0.5;entryY=0;entryDx=0;entryDy=0;exitX=0.375;exitY=1;exitDx=0;exitDy=0;" parent="bygBoIOWnMYkCNEaqkKK-1" source="hk0QY18lUbkI9ywZygTZ-4" target="hk0QY18lUbkI9ywZygTZ-2" edge="1">
          <mxGeometry relative="1" as="geometry">
            <mxPoint x="506" y="7877" as="targetPoint" />
            <mxPoint x="589" y="7785" as="sourcePoint" />
          </mxGeometry>
        </mxCell>
        <mxCell id="bygBoIOWnMYkCNEaqkKK-34" value="Основание 1" style="edgeLabel;html=1;align=center;verticalAlign=middle;resizable=0;points=[];" parent="bygBoIOWnMYkCNEaqkKK-33" vertex="1" connectable="0">
          <mxGeometry x="-0.4658" relative="1" as="geometry">
            <mxPoint as="offset" />
          </mxGeometry>
        </mxCell>
        <mxCell id="bygBoIOWnMYkCNEaqkKK-39" value="" style="shape=flexArrow;endArrow=classic;html=1;rounded=0;width=24;endSize=8.67;" parent="bygBoIOWnMYkCNEaqkKK-1" edge="1">
          <mxGeometry width="50" height="50" relative="1" as="geometry">
            <mxPoint x="462" y="7898" as="sourcePoint" />
            <mxPoint x="462" y="7948" as="targetPoint" />
          </mxGeometry>
        </mxCell>
        <mxCell id="bygBoIOWnMYkCNEaqkKK-40" value="" style="shape=flexArrow;endArrow=classic;html=1;rounded=0;width=24;endSize=8.67;" parent="bygBoIOWnMYkCNEaqkKK-1" edge="1">
          <mxGeometry width="50" height="50" relative="1" as="geometry">
            <mxPoint x="545.5" y="7898" as="sourcePoint" />
            <mxPoint x="545.5" y="7948" as="targetPoint" />
          </mxGeometry>
        </mxCell>
        <mxCell id="bygBoIOWnMYkCNEaqkKK-41" value="" style="shape=flexArrow;endArrow=classic;html=1;rounded=0;width=24;endSize=8.67;" parent="bygBoIOWnMYkCNEaqkKK-1" edge="1">
          <mxGeometry width="50" height="50" relative="1" as="geometry">
            <mxPoint x="689.5" y="7898" as="sourcePoint" />
            <mxPoint x="689.5" y="7948" as="targetPoint" />
          </mxGeometry>
        </mxCell>
        <mxCell id="bygBoIOWnMYkCNEaqkKK-46" value="&lt;font color=&quot;#ffffff&quot;&gt;Основание оформления&lt;/font&gt;" style="rhombus;whiteSpace=wrap;html=1;fillColor=#182E3E;strokeColor=#b85450;" parent="bygBoIOWnMYkCNEaqkKK-1" vertex="1">
          <mxGeometry x="368" y="7950" width="94" height="90" as="geometry" />
        </mxCell>
        <mxCell id="bygBoIOWnMYkCNEaqkKK-47" value="Основание 4" style="edgeStyle=orthogonalEdgeStyle;rounded=0;orthogonalLoop=1;jettySize=auto;html=1;exitX=0.375;exitY=0;exitDx=0;exitDy=0;entryX=0.5;entryY=0;entryDx=0;entryDy=0;" parent="bygBoIOWnMYkCNEaqkKK-1" source="hk0QY18lUbkI9ywZygTZ-4" target="hk0QY18lUbkI9ywZygTZ-3" edge="1">
          <mxGeometry x="-0.5724" relative="1" as="geometry">
            <mxPoint as="offset" />
            <mxPoint x="780" y="7871" as="targetPoint" />
          </mxGeometry>
        </mxCell>
        <mxCell id="bygBoIOWnMYkCNEaqkKK-48" value="Запуск сценариев в мониторинге" style="shape=hexagon;perimeter=hexagonPerimeter2;whiteSpace=wrap;html=1;fixedSize=1;rotation=90;fillColor=#182E3E;labelBorderColor=none;fontColor=#FFFFFF;horizontal=0;verticalAlign=middle;" parent="bygBoIOWnMYkCNEaqkKK-1" vertex="1">
          <mxGeometry x="380" y="7662" width="70" height="80" as="geometry" />
        </mxCell>
        <mxCell id="hk0QY18lUbkI9ywZygTZ-0" value="Сценарий 3.2" style="rounded=1;whiteSpace=wrap;html=1;align=center;labelBackgroundColor=none;fillColor=#182E3E;strokeColor=#FFFFFF;fontColor=#FFFFFF;" parent="bygBoIOWnMYkCNEaqkKK-1" vertex="1">
          <mxGeometry x="506" y="7839" width="80" height="60" as="geometry" />
        </mxCell>
        <mxCell id="hk0QY18lUbkI9ywZygTZ-1" value="Сценарий 3.3" style="rounded=1;whiteSpace=wrap;html=1;align=center;labelBackgroundColor=none;fillColor=#182E3E;strokeColor=#FFFFFF;fontColor=#FFFFFF;" parent="bygBoIOWnMYkCNEaqkKK-1" vertex="1">
          <mxGeometry x="650" y="7839" width="80" height="60" as="geometry" />
        </mxCell>
        <mxCell id="hk0QY18lUbkI9ywZygTZ-2" value="Сценарий 3.1" style="rounded=1;whiteSpace=wrap;html=1;align=center;labelBackgroundColor=none;fillColor=#182E3E;strokeColor=#FFFFFF;fontColor=#FFFFFF;" parent="bygBoIOWnMYkCNEaqkKK-1" vertex="1">
          <mxGeometry x="419" y="7839" width="80" height="60" as="geometry" />
        </mxCell>
        <mxCell id="hk0QY18lUbkI9ywZygTZ-3" value="Сценарий 3.4" style="rounded=1;whiteSpace=wrap;html=1;align=center;labelBackgroundColor=none;fillColor=#182E3E;strokeColor=#FFFFFF;fontColor=#FFFFFF;" parent="bygBoIOWnMYkCNEaqkKK-1" vertex="1">
          <mxGeometry x="741.88" y="7839" width="80" height="60" as="geometry" />
        </mxCell>
        <mxCell id="hk0QY18lUbkI9ywZygTZ-4" value="Основание оформления" style="shape=hexagon;perimeter=hexagonPerimeter2;whiteSpace=wrap;html=1;fixedSize=1;rotation=90;fillColor=#182E3E;labelBorderColor=none;fontColor=#FFFFFF;horizontal=0;verticalAlign=middle;" parent="bygBoIOWnMYkCNEaqkKK-1" vertex="1">
          <mxGeometry x="586" y="7747" width="70" height="80" as="geometry" />
        </mxCell>
        <mxCell id="hk0QY18lUbkI9ywZygTZ-5" value="" style="shape=flexArrow;endArrow=classic;html=1;rounded=0;width=24;endSize=8.67;" parent="bygBoIOWnMYkCNEaqkKK-1" edge="1">
          <mxGeometry width="50" height="50" relative="1" as="geometry">
            <mxPoint x="781.38" y="7898" as="sourcePoint" />
            <mxPoint x="781.38" y="7948" as="targetPoint" />
          </mxGeometry>
        </mxCell>
        <mxCell id="C4iX0L_SmeBbT9ZNSTBG-0" value="" style="edgeStyle=orthogonalEdgeStyle;rounded=0;orthogonalLoop=1;jettySize=auto;html=1;entryX=0.5;entryY=0;entryDx=0;entryDy=0;exitX=0.625;exitY=1;exitDx=0;exitDy=0;" parent="bygBoIOWnMYkCNEaqkKK-1" source="C4iX0L_SmeBbT9ZNSTBG-14" target="C4iX0L_SmeBbT9ZNSTBG-10" edge="1">
          <mxGeometry relative="1" as="geometry">
            <mxPoint x="215.12" y="7878" as="targetPoint" />
            <mxPoint x="215.12" y="7826" as="sourcePoint" />
          </mxGeometry>
        </mxCell>
        <mxCell id="C4iX0L_SmeBbT9ZNSTBG-1" value="Основание 2" style="edgeLabel;html=1;align=center;verticalAlign=middle;resizable=0;points=[];" parent="C4iX0L_SmeBbT9ZNSTBG-0" vertex="1" connectable="0">
          <mxGeometry x="-0.5733" y="-1" relative="1" as="geometry">
            <mxPoint x="-9" y="26" as="offset" />
          </mxGeometry>
        </mxCell>
        <mxCell id="C4iX0L_SmeBbT9ZNSTBG-2" style="edgeStyle=orthogonalEdgeStyle;rounded=0;orthogonalLoop=1;jettySize=auto;html=1;entryX=0.5;entryY=0;entryDx=0;entryDy=0;exitX=0.657;exitY=0;exitDx=0;exitDy=0;exitPerimeter=0;" parent="bygBoIOWnMYkCNEaqkKK-1" source="C4iX0L_SmeBbT9ZNSTBG-14" target="C4iX0L_SmeBbT9ZNSTBG-11" edge="1">
          <mxGeometry relative="1" as="geometry">
            <mxPoint x="338.12" y="7878" as="targetPoint" />
            <mxPoint x="255.12" y="7786" as="sourcePoint" />
            <Array as="points">
              <mxPoint x="276.12" y="7799" />
            </Array>
          </mxGeometry>
        </mxCell>
        <mxCell id="C4iX0L_SmeBbT9ZNSTBG-3" value="Основание 3" style="edgeLabel;html=1;align=center;verticalAlign=middle;resizable=0;points=[];" parent="C4iX0L_SmeBbT9ZNSTBG-2" vertex="1" connectable="0">
          <mxGeometry x="-0.3316" relative="1" as="geometry">
            <mxPoint x="2" y="18" as="offset" />
          </mxGeometry>
        </mxCell>
        <mxCell id="C4iX0L_SmeBbT9ZNSTBG-4" style="edgeStyle=orthogonalEdgeStyle;rounded=0;orthogonalLoop=1;jettySize=auto;html=1;entryX=0.5;entryY=0;entryDx=0;entryDy=0;exitX=0.375;exitY=1;exitDx=0;exitDy=0;" parent="bygBoIOWnMYkCNEaqkKK-1" source="C4iX0L_SmeBbT9ZNSTBG-14" target="C4iX0L_SmeBbT9ZNSTBG-12" edge="1">
          <mxGeometry relative="1" as="geometry">
            <mxPoint x="92.12" y="7878" as="targetPoint" />
            <mxPoint x="175.12" y="7786" as="sourcePoint" />
          </mxGeometry>
        </mxCell>
        <mxCell id="C4iX0L_SmeBbT9ZNSTBG-5" value="Основание 1" style="edgeLabel;html=1;align=center;verticalAlign=middle;resizable=0;points=[];" parent="C4iX0L_SmeBbT9ZNSTBG-4" vertex="1" connectable="0">
          <mxGeometry x="-0.4658" relative="1" as="geometry">
            <mxPoint as="offset" />
          </mxGeometry>
        </mxCell>
        <mxCell id="C4iX0L_SmeBbT9ZNSTBG-6" value="" style="shape=flexArrow;endArrow=classic;html=1;rounded=0;width=24;endSize=8.67;" parent="bygBoIOWnMYkCNEaqkKK-1" edge="1">
          <mxGeometry width="50" height="50" relative="1" as="geometry">
            <mxPoint x="48.120000000000005" y="7899" as="sourcePoint" />
            <mxPoint x="48.120000000000005" y="7949" as="targetPoint" />
          </mxGeometry>
        </mxCell>
        <mxCell id="C4iX0L_SmeBbT9ZNSTBG-7" value="" style="shape=flexArrow;endArrow=classic;html=1;rounded=0;width=24;endSize=8.67;" parent="bygBoIOWnMYkCNEaqkKK-1" edge="1">
          <mxGeometry width="50" height="50" relative="1" as="geometry">
            <mxPoint x="131.62" y="7899" as="sourcePoint" />
            <mxPoint x="131.62" y="7949" as="targetPoint" />
          </mxGeometry>
        </mxCell>
        <mxCell id="C4iX0L_SmeBbT9ZNSTBG-8" value="" style="shape=flexArrow;endArrow=classic;html=1;rounded=0;width=24;endSize=8.67;" parent="bygBoIOWnMYkCNEaqkKK-1" edge="1">
          <mxGeometry width="50" height="50" relative="1" as="geometry">
            <mxPoint x="275.62" y="7899" as="sourcePoint" />
            <mxPoint x="275.62" y="7949" as="targetPoint" />
          </mxGeometry>
        </mxCell>
        <mxCell id="C4iX0L_SmeBbT9ZNSTBG-9" value="Основание 4" style="edgeStyle=orthogonalEdgeStyle;rounded=0;orthogonalLoop=1;jettySize=auto;html=1;exitX=0.375;exitY=0;exitDx=0;exitDy=0;entryX=0.5;entryY=0;entryDx=0;entryDy=0;" parent="bygBoIOWnMYkCNEaqkKK-1" source="C4iX0L_SmeBbT9ZNSTBG-14" target="C4iX0L_SmeBbT9ZNSTBG-13" edge="1">
          <mxGeometry x="-0.5724" relative="1" as="geometry">
            <mxPoint as="offset" />
            <mxPoint x="366.12" y="7872" as="targetPoint" />
          </mxGeometry>
        </mxCell>
        <mxCell id="C4iX0L_SmeBbT9ZNSTBG-10" value="Сценарий 1.2" style="rounded=1;whiteSpace=wrap;html=1;align=center;labelBackgroundColor=none;fillColor=#182E3E;strokeColor=#FFFFFF;fontColor=#FFFFFF;" parent="bygBoIOWnMYkCNEaqkKK-1" vertex="1">
          <mxGeometry x="92.12" y="7840" width="80" height="60" as="geometry" />
        </mxCell>
        <mxCell id="C4iX0L_SmeBbT9ZNSTBG-11" value="Сценарий 1.3" style="rounded=1;whiteSpace=wrap;html=1;align=center;labelBackgroundColor=none;fillColor=#182E3E;strokeColor=#FFFFFF;fontColor=#FFFFFF;" parent="bygBoIOWnMYkCNEaqkKK-1" vertex="1">
          <mxGeometry x="236.12" y="7840" width="80" height="60" as="geometry" />
        </mxCell>
        <mxCell id="C4iX0L_SmeBbT9ZNSTBG-12" value="Сценарий 1.1" style="rounded=1;whiteSpace=wrap;html=1;align=center;labelBackgroundColor=none;fillColor=#182E3E;strokeColor=#FFFFFF;fontColor=#FFFFFF;" parent="bygBoIOWnMYkCNEaqkKK-1" vertex="1">
          <mxGeometry x="5.1200000000000045" y="7840" width="80" height="60" as="geometry" />
        </mxCell>
        <mxCell id="C4iX0L_SmeBbT9ZNSTBG-13" value="Сценарий 1.4" style="rounded=1;whiteSpace=wrap;html=1;align=center;labelBackgroundColor=none;fillColor=#182E3E;strokeColor=#FFFFFF;fontColor=#FFFFFF;" parent="bygBoIOWnMYkCNEaqkKK-1" vertex="1">
          <mxGeometry x="328" y="7840" width="80" height="60" as="geometry" />
        </mxCell>
        <mxCell id="C4iX0L_SmeBbT9ZNSTBG-14" value="Основание оформления" style="shape=hexagon;perimeter=hexagonPerimeter2;whiteSpace=wrap;html=1;fixedSize=1;rotation=90;fillColor=#182E3E;labelBorderColor=none;fontColor=#FFFFFF;horizontal=0;verticalAlign=middle;" parent="bygBoIOWnMYkCNEaqkKK-1" vertex="1">
          <mxGeometry x="172.12" y="7748" width="70" height="80" as="geometry" />
        </mxCell>
        <mxCell id="C4iX0L_SmeBbT9ZNSTBG-15" value="" style="shape=flexArrow;endArrow=classic;html=1;rounded=0;width=24;endSize=8.67;" parent="bygBoIOWnMYkCNEaqkKK-1" edge="1">
          <mxGeometry width="50" height="50" relative="1" as="geometry">
            <mxPoint x="367.5" y="7899" as="sourcePoint" />
            <mxPoint x="367.5" y="7949" as="targetPoint" />
          </mxGeometry>
        </mxCell>
        <mxCell id="C4iX0L_SmeBbT9ZNSTBG-16" value="" style="edgeStyle=orthogonalEdgeStyle;rounded=0;orthogonalLoop=1;jettySize=auto;html=1;entryX=0.5;entryY=0;entryDx=0;entryDy=0;exitX=0.5;exitY=1;exitDx=0;exitDy=0;" parent="bygBoIOWnMYkCNEaqkKK-1" source="bygBoIOWnMYkCNEaqkKK-46" target="C4iX0L_SmeBbT9ZNSTBG-26" edge="1">
          <mxGeometry relative="1" as="geometry">
            <mxPoint x="423.56" y="8340" as="targetPoint" />
            <mxPoint x="375.55999999999995" y="8258.75" as="sourcePoint" />
          </mxGeometry>
        </mxCell>
        <mxCell id="C4iX0L_SmeBbT9ZNSTBG-17" value="Основание 2" style="edgeLabel;html=1;align=center;verticalAlign=middle;resizable=0;points=[];" parent="C4iX0L_SmeBbT9ZNSTBG-16" vertex="1" connectable="0">
          <mxGeometry x="-0.5733" y="-1" relative="1" as="geometry">
            <mxPoint x="-1" y="6" as="offset" />
          </mxGeometry>
        </mxCell>
        <mxCell id="C4iX0L_SmeBbT9ZNSTBG-20" style="edgeStyle=orthogonalEdgeStyle;rounded=0;orthogonalLoop=1;jettySize=auto;html=1;entryX=0.5;entryY=0;entryDx=0;entryDy=0;exitX=0;exitY=0.5;exitDx=0;exitDy=0;" parent="bygBoIOWnMYkCNEaqkKK-1" source="bygBoIOWnMYkCNEaqkKK-46" target="C4iX0L_SmeBbT9ZNSTBG-28" edge="1">
          <mxGeometry relative="1" as="geometry">
            <mxPoint x="300.56" y="8340" as="targetPoint" />
            <mxPoint x="375.55999999999995" y="8241.25" as="sourcePoint" />
          </mxGeometry>
        </mxCell>
        <mxCell id="C4iX0L_SmeBbT9ZNSTBG-21" value="Основание 1" style="edgeLabel;html=1;align=center;verticalAlign=middle;resizable=0;points=[];" parent="C4iX0L_SmeBbT9ZNSTBG-20" vertex="1" connectable="0">
          <mxGeometry x="-0.4658" relative="1" as="geometry">
            <mxPoint x="-18" y="35" as="offset" />
          </mxGeometry>
        </mxCell>
        <mxCell id="C4iX0L_SmeBbT9ZNSTBG-22" value="" style="shape=flexArrow;endArrow=classic;html=1;rounded=0;width=24;endSize=8.67;" parent="bygBoIOWnMYkCNEaqkKK-1" edge="1">
          <mxGeometry width="50" height="50" relative="1" as="geometry">
            <mxPoint x="318.56" y="8130" as="sourcePoint" />
            <mxPoint x="318.56" y="8180" as="targetPoint" />
          </mxGeometry>
        </mxCell>
        <mxCell id="C4iX0L_SmeBbT9ZNSTBG-23" value="" style="shape=flexArrow;endArrow=classic;html=1;rounded=0;width=24;endSize=8.67;" parent="bygBoIOWnMYkCNEaqkKK-1" edge="1">
          <mxGeometry width="50" height="50" relative="1" as="geometry">
            <mxPoint x="413" y="8132" as="sourcePoint" />
            <mxPoint x="413" y="8182" as="targetPoint" />
          </mxGeometry>
        </mxCell>
        <mxCell id="C4iX0L_SmeBbT9ZNSTBG-25" value="Основание 4" style="edgeStyle=orthogonalEdgeStyle;rounded=0;orthogonalLoop=1;jettySize=auto;html=1;exitX=1;exitY=0.5;exitDx=0;exitDy=0;entryX=0.5;entryY=0;entryDx=0;entryDy=0;" parent="bygBoIOWnMYkCNEaqkKK-1" source="bygBoIOWnMYkCNEaqkKK-46" target="C4iX0L_SmeBbT9ZNSTBG-29" edge="1">
          <mxGeometry x="0.3564" relative="1" as="geometry">
            <mxPoint as="offset" />
            <mxPoint x="574.56" y="8334" as="targetPoint" />
            <mxPoint x="455.55999999999995" y="8241.25" as="sourcePoint" />
          </mxGeometry>
        </mxCell>
        <mxCell id="C4iX0L_SmeBbT9ZNSTBG-26" value="Сценарий 2.2" style="rounded=1;whiteSpace=wrap;html=1;align=center;labelBackgroundColor=none;fillColor=#182E3E;strokeColor=#FFFFFF;fontColor=#FFFFFF;" parent="bygBoIOWnMYkCNEaqkKK-1" vertex="1">
          <mxGeometry x="375" y="8073" width="80" height="60" as="geometry" />
        </mxCell>
        <mxCell id="C4iX0L_SmeBbT9ZNSTBG-28" value="Сценарий 2.1" style="rounded=1;whiteSpace=wrap;html=1;align=center;labelBackgroundColor=none;fillColor=#182E3E;strokeColor=#FFFFFF;fontColor=#FFFFFF;" parent="bygBoIOWnMYkCNEaqkKK-1" vertex="1">
          <mxGeometry x="275.56" y="8071" width="80" height="60" as="geometry" />
        </mxCell>
        <mxCell id="C4iX0L_SmeBbT9ZNSTBG-29" value="Сценарий 2.4" style="rounded=1;whiteSpace=wrap;html=1;align=center;labelBackgroundColor=none;fillColor=#182E3E;strokeColor=#FFFFFF;fontColor=#FFFFFF;" parent="bygBoIOWnMYkCNEaqkKK-1" vertex="1">
          <mxGeometry x="473.44000000000005" y="8071" width="80" height="60" as="geometry" />
        </mxCell>
        <mxCell id="C4iX0L_SmeBbT9ZNSTBG-31" value="" style="shape=flexArrow;endArrow=classic;html=1;rounded=0;width=24;endSize=8.67;" parent="bygBoIOWnMYkCNEaqkKK-1" edge="1">
          <mxGeometry width="50" height="50" relative="1" as="geometry">
            <mxPoint x="512.94" y="8130" as="sourcePoint" />
            <mxPoint x="512.94" y="8180" as="targetPoint" />
          </mxGeometry>
        </mxCell>
        <mxCell id="jv5F-BRT1tBqPTO2Uct6-1" value="Нет" style="edgeStyle=orthogonalEdgeStyle;rounded=0;orthogonalLoop=1;jettySize=auto;html=1;entryX=0;entryY=0.5;entryDx=0;entryDy=0;" parent="bygBoIOWnMYkCNEaqkKK-1" source="jv5F-BRT1tBqPTO2Uct6-2" target="jv5F-BRT1tBqPTO2Uct6-3" edge="1">
          <mxGeometry x="0.1288" y="-1" relative="1" as="geometry">
            <mxPoint x="977.8576008213608" y="7402.5" as="targetPoint" />
            <mxPoint as="offset" />
          </mxGeometry>
        </mxCell>
        <mxCell id="jDnSmRZJpF5IyyOIwCTC-0" value="Да" style="edgeStyle=orthogonalEdgeStyle;rounded=0;orthogonalLoop=1;jettySize=auto;html=1;entryX=0.5;entryY=0;entryDx=0;entryDy=0;" edge="1" parent="bygBoIOWnMYkCNEaqkKK-1" source="jv5F-BRT1tBqPTO2Uct6-2" target="dyxkDbHjYnuadFh7_9dz-1">
          <mxGeometry relative="1" as="geometry" />
        </mxCell>
        <mxCell id="jv5F-BRT1tBqPTO2Uct6-2" value="&lt;span style=&quot;background-color: rgb(24, 46, 62);&quot;&gt;Идентификационный номер &quot;доверенный&quot;?&lt;/span&gt;" style="rhombus;whiteSpace=wrap;html=1;fillColor=#182E3E;strokeColor=none;fontColor=#FFFFFF;" parent="bygBoIOWnMYkCNEaqkKK-1" vertex="1">
          <mxGeometry x="349.375" y="7263" width="131.25" height="126" as="geometry" />
        </mxCell>
        <mxCell id="jv5F-BRT1tBqPTO2Uct6-3" value="Ответ бота: необходимо создать запрос в ЦОЗ. Требуется дополнительный анализ&amp;nbsp;" style="rounded=1;whiteSpace=wrap;html=1;labelBackgroundColor=none;fillColor=#182E3E;strokeColor=#FFFFFF;fontColor=#FFFFFF;align=left;arcSize=5;" parent="bygBoIOWnMYkCNEaqkKK-1" vertex="1">
          <mxGeometry x="528.87" y="7270.75" width="205.13" height="110.5" as="geometry" />
        </mxCell>
        <mxCell id="jv5F-BRT1tBqPTO2Uct6-4" value="&lt;span style=&quot;color: rgb(0, 0, 0); font-family: Helvetica; font-size: 12px; font-style: normal; font-variant-ligatures: normal; font-variant-caps: normal; font-weight: 400; letter-spacing: normal; orphans: 2; text-indent: 0px; text-transform: none; widows: 2; word-spacing: 0px; -webkit-text-stroke-width: 0px; background-color: rgb(255, 242, 204); text-decoration-thickness: initial; text-decoration-style: initial; text-decoration-color: initial; float: none; display: inline !important;&quot;&gt;Необходимо уточнить возможности бота.&lt;/span&gt;&lt;br style=&quot;border-color: var(--border-color); color: rgb(0, 0, 0); font-family: Helvetica; font-size: 12px; font-style: normal; font-variant-ligatures: normal; font-variant-caps: normal; font-weight: 400; letter-spacing: normal; orphans: 2; text-indent: 0px; text-transform: none; widows: 2; word-spacing: 0px; -webkit-text-stroke-width: 0px; text-decoration-thickness: initial; text-decoration-style: initial; text-decoration-color: initial;&quot;&gt;&lt;span style=&quot;border-color: var(--border-color); color: rgb(0, 0, 0); font-family: Helvetica; font-size: 12px; font-style: normal; font-variant-ligatures: normal; font-variant-caps: normal; font-weight: 400; letter-spacing: normal; orphans: 2; text-indent: 0px; text-transform: none; widows: 2; word-spacing: 0px; -webkit-text-stroke-width: 0px; text-decoration-thickness: initial; text-decoration-style: initial; text-decoration-color: initial;&quot;&gt;Доверенный номер:&lt;br&gt;&lt;br&gt;&lt;/span&gt;СМ--&amp;gt;&lt;br style=&quot;border-color: var(--border-color); color: rgb(0, 0, 0); font-family: Helvetica; font-size: 12px; font-style: normal; font-variant-ligatures: normal; font-variant-caps: normal; font-weight: 400; letter-spacing: normal; orphans: 2; text-indent: 0px; text-transform: none; widows: 2; word-spacing: 0px; -webkit-text-stroke-width: 0px; text-decoration-thickness: initial; text-decoration-style: initial; text-decoration-color: initial;&quot;&gt;&lt;span style=&quot;border-color: var(--border-color); color: rgb(0, 0, 0); font-family: Helvetica; font-size: 12px; font-style: normal; font-variant-ligatures: normal; font-variant-caps: normal; font-weight: 400; letter-spacing: normal; orphans: 2; text-indent: 0px; text-transform: none; widows: 2; word-spacing: 0px; -webkit-text-stroke-width: 0px; text-decoration-thickness: initial; text-decoration-style: initial; text-decoration-color: initial;&quot;&gt;1. не составной&lt;/span&gt;&lt;br style=&quot;border-color: var(--border-color); color: rgb(0, 0, 0); font-family: Helvetica; font-size: 12px; font-style: normal; font-variant-ligatures: normal; font-variant-caps: normal; font-weight: 400; letter-spacing: normal; orphans: 2; text-indent: 0px; text-transform: none; widows: 2; word-spacing: 0px; -webkit-text-stroke-width: 0px; text-decoration-thickness: initial; text-decoration-style: initial; text-decoration-color: initial;&quot;&gt;&lt;span style=&quot;border-color: var(--border-color); color: rgb(0, 0, 0); font-family: Helvetica; font-size: 12px; font-style: normal; font-variant-ligatures: normal; font-variant-caps: normal; font-weight: 400; letter-spacing: normal; orphans: 2; text-indent: 0px; text-transform: none; widows: 2; word-spacing: 0px; -webkit-text-stroke-width: 0px; text-decoration-thickness: initial; text-decoration-style: initial; text-decoration-color: initial;&quot;&gt;2. строго более 7&lt;/span&gt;&lt;br style=&quot;border-color: var(--border-color); color: rgb(0, 0, 0); font-family: Helvetica; font-size: 12px; font-style: normal; font-variant-ligatures: normal; font-variant-caps: normal; font-weight: 400; letter-spacing: normal; orphans: 2; text-indent: 0px; text-transform: none; widows: 2; word-spacing: 0px; -webkit-text-stroke-width: 0px; text-decoration-thickness: initial; text-decoration-style: initial; text-decoration-color: initial;&quot;&gt;&lt;span style=&quot;border-color: var(--border-color); color: rgb(0, 0, 0); font-family: Helvetica; font-size: 12px; font-style: normal; font-variant-ligatures: normal; font-variant-caps: normal; font-weight: 400; letter-spacing: normal; orphans: 2; text-indent: 0px; text-transform: none; widows: 2; word-spacing: 0px; -webkit-text-stroke-width: 0px; text-decoration-thickness: initial; text-decoration-style: initial; text-decoration-color: initial;&quot;&gt;3. цифровой-буквенный состав&lt;/span&gt;&lt;br style=&quot;border-color: var(--border-color); color: rgb(0, 0, 0); font-family: Helvetica; font-size: 12px; font-style: normal; font-variant-ligatures: normal; font-variant-caps: normal; font-weight: 400; letter-spacing: normal; orphans: 2; text-indent: 0px; text-transform: none; widows: 2; word-spacing: 0px; -webkit-text-stroke-width: 0px; text-decoration-thickness: initial; text-decoration-style: initial; text-decoration-color: initial;&quot;&gt;&lt;span style=&quot;border-color: var(--border-color); color: rgb(0, 0, 0); font-family: Helvetica; font-size: 12px; font-style: normal; font-variant-ligatures: normal; font-variant-caps: normal; font-weight: 400; letter-spacing: normal; orphans: 2; text-indent: 0px; text-transform: none; widows: 2; word-spacing: 0px; -webkit-text-stroke-width: 0px; text-decoration-thickness: initial; text-decoration-style: initial; text-decoration-color: initial;&quot;&gt;4. буквенные обозначения только латиницей&lt;br&gt;&amp;nbsp;&lt;br&gt;ТС--&amp;gt;&lt;br&gt;1.&amp;nbsp;по ТР ТС+ Япония&lt;br&gt;&lt;/span&gt;" style="shape=step;perimeter=stepPerimeter;whiteSpace=wrap;html=1;fixedSize=1;rotation=0;align=left;size=20;fillColor=#fff2cc;strokeColor=#d6b656;" parent="bygBoIOWnMYkCNEaqkKK-1" vertex="1">
          <mxGeometry y="7538" width="188.5" height="212" as="geometry" />
        </mxCell>
        <mxCell id="dyxkDbHjYnuadFh7_9dz-2" value="Да" style="edgeStyle=orthogonalEdgeStyle;rounded=0;orthogonalLoop=1;jettySize=auto;html=1;entryX=0;entryY=0.5;entryDx=0;entryDy=0;exitX=0.5;exitY=1;exitDx=0;exitDy=0;" parent="bygBoIOWnMYkCNEaqkKK-1" source="dyxkDbHjYnuadFh7_9dz-1" target="bygBoIOWnMYkCNEaqkKK-48" edge="1">
          <mxGeometry x="-0.3133" y="-1" relative="1" as="geometry">
            <mxPoint x="416" y="7223" as="targetPoint" />
            <mxPoint as="offset" />
          </mxGeometry>
        </mxCell>
        <mxCell id="2_C3wtge-3Jmh_C_oDH0-3" value="Нет" style="edgeStyle=orthogonalEdgeStyle;rounded=0;orthogonalLoop=1;jettySize=auto;html=1;exitX=1;exitY=0.5;exitDx=0;exitDy=0;entryX=0;entryY=0.5;entryDx=0;entryDy=0;" parent="bygBoIOWnMYkCNEaqkKK-1" source="dyxkDbHjYnuadFh7_9dz-1" target="2_C3wtge-3Jmh_C_oDH0-4" edge="1">
          <mxGeometry x="-0.7898" relative="1" as="geometry">
            <mxPoint x="-120" y="7560" as="targetPoint" />
            <mxPoint as="offset" />
          </mxGeometry>
        </mxCell>
        <mxCell id="dyxkDbHjYnuadFh7_9dz-1" value="&lt;span style=&quot;background-color: rgb(24, 46, 62);&quot;&gt;Сведения об УС должны указываться &lt;br&gt;в системах РФ?&lt;/span&gt;" style="rhombus;whiteSpace=wrap;html=1;fillColor=#182E3E;strokeColor=none;fontColor=#FFFFFF;" parent="bygBoIOWnMYkCNEaqkKK-1" vertex="1">
          <mxGeometry x="349.375" y="7489" width="131.25" height="126" as="geometry" />
        </mxCell>
        <mxCell id="2_C3wtge-3Jmh_C_oDH0-2" value="Нет" style="edgeStyle=orthogonalEdgeStyle;rounded=0;orthogonalLoop=1;jettySize=auto;html=1;exitX=0.5;exitY=1;exitDx=0;exitDy=0;entryX=0.5;entryY=0;entryDx=0;entryDy=0;" parent="bygBoIOWnMYkCNEaqkKK-1" source="2_C3wtge-3Jmh_C_oDH0-0" target="TufxAfSETdTsVOYlU3cS-3" edge="1">
          <mxGeometry x="-0.027" relative="1" as="geometry">
            <mxPoint as="offset" />
            <mxPoint x="730" y="7084" as="targetPoint" />
          </mxGeometry>
        </mxCell>
        <mxCell id="2_C3wtge-3Jmh_C_oDH0-0" value="&lt;span style=&quot;background-color: rgb(24, 46, 62);&quot;&gt;Статус паспорта незавершенный?&lt;/span&gt;" style="rhombus;whiteSpace=wrap;html=1;fillColor=#182E3E;strokeColor=none;fontColor=#FFFFFF;" parent="bygBoIOWnMYkCNEaqkKK-1" vertex="1">
          <mxGeometry x="104.375" y="7263" width="131.25" height="126" as="geometry" />
        </mxCell>
        <mxCell id="2_C3wtge-3Jmh_C_oDH0-4" value="Ответ бота: следует обратиться к национальному оператору" style="rounded=1;whiteSpace=wrap;html=1;align=left;labelBackgroundColor=none;fillColor=#182E3E;strokeColor=#FFFFFF;fontColor=#FFFFFF;arcSize=6;" parent="bygBoIOWnMYkCNEaqkKK-1" vertex="1">
          <mxGeometry x="514.87" y="7497" width="205.13" height="110" as="geometry" />
        </mxCell>
        <mxCell id="EdYzV4V6BGdJPjfaxlQi-1" style="edgeStyle=orthogonalEdgeStyle;rounded=0;orthogonalLoop=1;jettySize=auto;html=1;entryX=0;entryY=0.5;entryDx=0;entryDy=0;" parent="bygBoIOWnMYkCNEaqkKK-1" source="EdYzV4V6BGdJPjfaxlQi-0" target="TufxAfSETdTsVOYlU3cS-0" edge="1">
          <mxGeometry relative="1" as="geometry" />
        </mxCell>
        <mxCell id="EdYzV4V6BGdJPjfaxlQi-0" value="&amp;nbsp; Запуск бота.&amp;nbsp;&lt;br&gt;&amp;nbsp; Статус паспорта&amp;nbsp; &amp;nbsp;&quot;Незавершенный&quot;" style="ellipse;whiteSpace=wrap;html=1;aspect=fixed;labelBackgroundColor=none;fillColor=none;strokeColor=#000000;fontColor=#000000;align=left;" parent="bygBoIOWnMYkCNEaqkKK-1" vertex="1">
          <mxGeometry x="14" y="7067" width="110" height="110" as="geometry" />
        </mxCell>
        <mxCell id="EdYzV4V6BGdJPjfaxlQi-2" value="Рассмотреть предложение о создании платной услуги по определению страны национального оператора для ЭПТС" style="whiteSpace=wrap;html=1;shape=mxgraph.basic.roundRectCallout;dx=34;dy=23;size=5;boundedLbl=1;fillColor=#f8cecc;strokeColor=#b85450;rotation=25;" parent="bygBoIOWnMYkCNEaqkKK-1" vertex="1">
          <mxGeometry x="695.5" y="7398.5" width="100" height="150" as="geometry" />
        </mxCell>
        <mxCell id="jDnSmRZJpF5IyyOIwCTC-5" style="edgeStyle=orthogonalEdgeStyle;rounded=0;orthogonalLoop=1;jettySize=auto;html=1;exitX=1;exitY=0.5;exitDx=0;exitDy=0;entryX=0;entryY=0.5;entryDx=0;entryDy=0;" edge="1" parent="bygBoIOWnMYkCNEaqkKK-1" source="TufxAfSETdTsVOYlU3cS-0" target="qGvmVo46HrowosLJs0sx-0">
          <mxGeometry relative="1" as="geometry" />
        </mxCell>
        <mxCell id="TufxAfSETdTsVOYlU3cS-0" value="Запрос &lt;br&gt;номера паспорта" style="shape=parallelogram;perimeter=parallelogramPerimeter;whiteSpace=wrap;html=1;fixedSize=1;fillColor=#182E3E;fontColor=#FFFFFF;" vertex="1" parent="bygBoIOWnMYkCNEaqkKK-1">
          <mxGeometry x="162" y="7084" width="150" height="76" as="geometry" />
        </mxCell>
        <mxCell id="TufxAfSETdTsVOYlU3cS-5" style="edgeStyle=orthogonalEdgeStyle;rounded=0;orthogonalLoop=1;jettySize=auto;html=1;exitX=1;exitY=0.5;exitDx=0;exitDy=0;entryX=0;entryY=0.5;entryDx=0;entryDy=0;" edge="1" parent="bygBoIOWnMYkCNEaqkKK-1" source="TufxAfSETdTsVOYlU3cS-3" target="TufxAfSETdTsVOYlU3cS-4">
          <mxGeometry relative="1" as="geometry" />
        </mxCell>
        <mxCell id="jDnSmRZJpF5IyyOIwCTC-6" value="" style="edgeStyle=orthogonalEdgeStyle;rounded=0;orthogonalLoop=1;jettySize=auto;html=1;" edge="1" parent="bygBoIOWnMYkCNEaqkKK-1" source="TufxAfSETdTsVOYlU3cS-3" target="TufxAfSETdTsVOYlU3cS-4">
          <mxGeometry relative="1" as="geometry" />
        </mxCell>
        <mxCell id="TufxAfSETdTsVOYlU3cS-3" value="Ответ бота: Паспорт имеет статус отличный от &quot;Незавершенный&quot;&amp;nbsp;" style="rounded=1;whiteSpace=wrap;html=1;align=left;labelBackgroundColor=none;fillColor=#182E3E;strokeColor=#FFFFFF;fontColor=#FFFFFF;arcSize=6;" vertex="1" parent="bygBoIOWnMYkCNEaqkKK-1">
          <mxGeometry x="70" y="7426" width="200" height="95" as="geometry" />
        </mxCell>
        <mxCell id="TufxAfSETdTsVOYlU3cS-4" value="" style="shape=sumEllipse;perimeter=ellipsePerimeter;whiteSpace=wrap;html=1;backgroundOutline=1;" vertex="1" parent="bygBoIOWnMYkCNEaqkKK-1">
          <mxGeometry x="303.12" y="7433.5" width="80" height="80" as="geometry" />
        </mxCell>
        <mxCell id="jDnSmRZJpF5IyyOIwCTC-1" value="Нет" style="edgeStyle=orthogonalEdgeStyle;rounded=0;orthogonalLoop=1;jettySize=auto;html=1;exitX=1;exitY=0.5;exitDx=0;exitDy=0;entryX=0;entryY=0.5;entryDx=0;entryDy=0;" edge="1" parent="bygBoIOWnMYkCNEaqkKK-1" source="qGvmVo46HrowosLJs0sx-0" target="qGvmVo46HrowosLJs0sx-1">
          <mxGeometry relative="1" as="geometry" />
        </mxCell>
        <mxCell id="jDnSmRZJpF5IyyOIwCTC-4" value="Да" style="edgeStyle=orthogonalEdgeStyle;rounded=0;orthogonalLoop=1;jettySize=auto;html=1;exitX=0.5;exitY=1;exitDx=0;exitDy=0;entryX=0.5;entryY=0;entryDx=0;entryDy=0;" edge="1" parent="bygBoIOWnMYkCNEaqkKK-1" source="qGvmVo46HrowosLJs0sx-0" target="2_C3wtge-3Jmh_C_oDH0-0">
          <mxGeometry x="-0.8859" y="5" relative="1" as="geometry">
            <mxPoint x="-5" y="5" as="offset" />
          </mxGeometry>
        </mxCell>
        <mxCell id="qGvmVo46HrowosLJs0sx-0" value="&lt;span style=&quot;background-color: rgb(24, 46, 62);&quot;&gt;Паспорт есть в системе?&amp;nbsp;&lt;br&gt;&lt;/span&gt;" style="rhombus;whiteSpace=wrap;html=1;fillColor=#182E3E;strokeColor=none;fontColor=#FFFFFF;" vertex="1" parent="bygBoIOWnMYkCNEaqkKK-1">
          <mxGeometry x="349.375" y="7059" width="131.25" height="126" as="geometry" />
        </mxCell>
        <mxCell id="jDnSmRZJpF5IyyOIwCTC-3" style="edgeStyle=orthogonalEdgeStyle;rounded=0;orthogonalLoop=1;jettySize=auto;html=1;entryX=0.5;entryY=0;entryDx=0;entryDy=0;" edge="1" parent="bygBoIOWnMYkCNEaqkKK-1" source="qGvmVo46HrowosLJs0sx-1" target="jDnSmRZJpF5IyyOIwCTC-2">
          <mxGeometry relative="1" as="geometry" />
        </mxCell>
        <mxCell id="qGvmVo46HrowosLJs0sx-1" value="Ответ бота: Паспорт отсутствует в системе" style="rounded=1;whiteSpace=wrap;html=1;align=left;labelBackgroundColor=none;fillColor=#182E3E;strokeColor=#FFFFFF;fontColor=#FFFFFF;arcSize=6;" vertex="1" parent="bygBoIOWnMYkCNEaqkKK-1">
          <mxGeometry x="544" y="7067" width="190" height="110" as="geometry" />
        </mxCell>
        <mxCell id="jDnSmRZJpF5IyyOIwCTC-2" value="" style="shape=sumEllipse;perimeter=ellipsePerimeter;whiteSpace=wrap;html=1;backgroundOutline=1;" vertex="1" parent="bygBoIOWnMYkCNEaqkKK-1">
          <mxGeometry x="745" y="7146" width="80" height="80" as="geometry" />
        </mxCell>
      </root>
    </mxGraphModel>
  </diagram>
  <diagram name="ЭПТС_Статус Незавершенный" id="2YBvvXClWsGukQMizWep">
    <mxGraphModel dx="1434" dy="-6268" grid="1" gridSize="10" guides="1" tooltips="1" connect="1" arrows="1" fold="1" page="1" pageScale="1" pageWidth="827" pageHeight="1169" background="#ffffff" math="0" shadow="0">
      <root>
        <mxCell id="0" />
        <mxCell id="1" parent="0" />
        <mxCell id="rhbYtgQ3pyjpRE49vsNS-2" value="Электронный паспорт ТС - статус &quot;незавершенный&quot;" style="text;html=1;strokeColor=none;fillColor=none;align=left;verticalAlign=middle;whiteSpace=wrap;rounded=0;fontColor=#000000;fontSize=24;" parent="1" vertex="1">
          <mxGeometry x="29" y="7027" width="790" height="30" as="geometry" />
        </mxCell>
        <mxCell id="rhbYtgQ3pyjpRE49vsNS-5" value="ТС&lt;br&gt;Доверенный идентификационный номер" style="rounded=1;whiteSpace=wrap;html=1;labelBackgroundColor=none;fillColor=#182E3E;strokeColor=#FFFFFF;fontColor=#FFFFFF;align=left;" parent="1" vertex="1">
          <mxGeometry x="330" y="7099" width="240" height="70" as="geometry" />
        </mxCell>
        <mxCell id="rhbYtgQ3pyjpRE49vsNS-6" style="edgeStyle=orthogonalEdgeStyle;rounded=0;orthogonalLoop=1;jettySize=auto;html=1;exitX=1;exitY=0.5;exitDx=0;exitDy=0;" parent="1" source="rhbYtgQ3pyjpRE49vsNS-7" target="rhbYtgQ3pyjpRE49vsNS-5" edge="1">
          <mxGeometry relative="1" as="geometry" />
        </mxCell>
        <mxCell id="rhbYtgQ3pyjpRE49vsNS-7" value="Сценарий 1. ТС" style="ellipse;whiteSpace=wrap;html=1;aspect=fixed;labelBackgroundColor=none;fillColor=none;strokeColor=#000000;fontColor=#000000;" parent="1" vertex="1">
          <mxGeometry x="97" y="7079" width="110" height="110" as="geometry" />
        </mxCell>
        <mxCell id="rhbYtgQ3pyjpRE49vsNS-12" style="edgeStyle=orthogonalEdgeStyle;rounded=0;orthogonalLoop=1;jettySize=auto;html=1;entryX=0;entryY=0.5;entryDx=0;entryDy=0;exitX=0.5;exitY=1;exitDx=0;exitDy=0;" parent="1" source="rhbYtgQ3pyjpRE49vsNS-5" target="r2-rTQoDPKY6AHcK3uoC-15" edge="1">
          <mxGeometry relative="1" as="geometry">
            <mxPoint x="415" y="7331" as="targetPoint" />
            <mxPoint x="415" y="7274" as="sourcePoint" />
          </mxGeometry>
        </mxCell>
        <mxCell id="r2-rTQoDPKY6AHcK3uoC-1" value="" style="edgeStyle=orthogonalEdgeStyle;rounded=0;orthogonalLoop=1;jettySize=auto;html=1;entryX=0.5;entryY=0;entryDx=0;entryDy=0;exitX=0.625;exitY=1;exitDx=0;exitDy=0;" parent="1" source="r2-rTQoDPKY6AHcK3uoC-15" target="r2-rTQoDPKY6AHcK3uoC-11" edge="1">
          <mxGeometry relative="1" as="geometry">
            <mxPoint x="457.56" y="7343" as="targetPoint" />
            <mxPoint x="457.56" y="7291" as="sourcePoint" />
          </mxGeometry>
        </mxCell>
        <mxCell id="r2-rTQoDPKY6AHcK3uoC-2" value="Основание 2" style="edgeLabel;html=1;align=center;verticalAlign=middle;resizable=0;points=[];" parent="r2-rTQoDPKY6AHcK3uoC-1" vertex="1" connectable="0">
          <mxGeometry x="-0.5733" y="-1" relative="1" as="geometry">
            <mxPoint x="-9" y="23" as="offset" />
          </mxGeometry>
        </mxCell>
        <mxCell id="r2-rTQoDPKY6AHcK3uoC-3" style="edgeStyle=orthogonalEdgeStyle;rounded=0;orthogonalLoop=1;jettySize=auto;html=1;entryX=0.5;entryY=0;entryDx=0;entryDy=0;exitX=0.657;exitY=0;exitDx=0;exitDy=0;exitPerimeter=0;" parent="1" source="r2-rTQoDPKY6AHcK3uoC-15" target="r2-rTQoDPKY6AHcK3uoC-12" edge="1">
          <mxGeometry relative="1" as="geometry">
            <mxPoint x="580.56" y="7343" as="targetPoint" />
            <mxPoint x="497.56" y="7251" as="sourcePoint" />
            <Array as="points">
              <mxPoint x="518.56" y="7264" />
            </Array>
          </mxGeometry>
        </mxCell>
        <mxCell id="r2-rTQoDPKY6AHcK3uoC-4" value="Основание 3" style="edgeLabel;html=1;align=center;verticalAlign=middle;resizable=0;points=[];" parent="r2-rTQoDPKY6AHcK3uoC-3" vertex="1" connectable="0">
          <mxGeometry x="-0.3316" relative="1" as="geometry">
            <mxPoint y="16" as="offset" />
          </mxGeometry>
        </mxCell>
        <mxCell id="r2-rTQoDPKY6AHcK3uoC-5" style="edgeStyle=orthogonalEdgeStyle;rounded=0;orthogonalLoop=1;jettySize=auto;html=1;entryX=0.5;entryY=0;entryDx=0;entryDy=0;exitX=0.375;exitY=1;exitDx=0;exitDy=0;" parent="1" source="r2-rTQoDPKY6AHcK3uoC-15" target="r2-rTQoDPKY6AHcK3uoC-13" edge="1">
          <mxGeometry relative="1" as="geometry">
            <mxPoint x="334.56" y="7343" as="targetPoint" />
            <mxPoint x="417.56" y="7251" as="sourcePoint" />
          </mxGeometry>
        </mxCell>
        <mxCell id="r2-rTQoDPKY6AHcK3uoC-6" value="Основание 1" style="edgeLabel;html=1;align=center;verticalAlign=middle;resizable=0;points=[];" parent="r2-rTQoDPKY6AHcK3uoC-5" vertex="1" connectable="0">
          <mxGeometry x="-0.4658" relative="1" as="geometry">
            <mxPoint as="offset" />
          </mxGeometry>
        </mxCell>
        <mxCell id="r2-rTQoDPKY6AHcK3uoC-7" value="" style="shape=flexArrow;endArrow=classic;html=1;rounded=0;width=24;endSize=8.67;" parent="1" edge="1">
          <mxGeometry width="50" height="50" relative="1" as="geometry">
            <mxPoint x="290.56" y="7398" as="sourcePoint" />
            <mxPoint x="290.56" y="7448" as="targetPoint" />
          </mxGeometry>
        </mxCell>
        <mxCell id="r2-rTQoDPKY6AHcK3uoC-8" value="" style="shape=flexArrow;endArrow=classic;html=1;rounded=0;width=24;endSize=8.67;" parent="1" edge="1">
          <mxGeometry width="50" height="50" relative="1" as="geometry">
            <mxPoint x="374.06" y="7398" as="sourcePoint" />
            <mxPoint x="374.06" y="7448" as="targetPoint" />
          </mxGeometry>
        </mxCell>
        <mxCell id="r2-rTQoDPKY6AHcK3uoC-9" value="" style="shape=flexArrow;endArrow=classic;html=1;rounded=0;width=24;endSize=8.67;" parent="1" edge="1">
          <mxGeometry width="50" height="50" relative="1" as="geometry">
            <mxPoint x="518.06" y="7398" as="sourcePoint" />
            <mxPoint x="518.06" y="7448" as="targetPoint" />
          </mxGeometry>
        </mxCell>
        <mxCell id="r2-rTQoDPKY6AHcK3uoC-10" value="Основание 4" style="edgeStyle=orthogonalEdgeStyle;rounded=0;orthogonalLoop=1;jettySize=auto;html=1;exitX=0.375;exitY=0;exitDx=0;exitDy=0;entryX=0.5;entryY=0;entryDx=0;entryDy=0;" parent="1" source="r2-rTQoDPKY6AHcK3uoC-15" target="r2-rTQoDPKY6AHcK3uoC-14" edge="1">
          <mxGeometry x="-0.5724" relative="1" as="geometry">
            <mxPoint as="offset" />
            <mxPoint x="608.56" y="7337" as="targetPoint" />
          </mxGeometry>
        </mxCell>
        <mxCell id="r2-rTQoDPKY6AHcK3uoC-11" value="Сценарий 1.2" style="rounded=1;whiteSpace=wrap;html=1;align=center;labelBackgroundColor=none;fillColor=#182E3E;strokeColor=#FFFFFF;fontColor=#FFFFFF;" parent="1" vertex="1">
          <mxGeometry x="334.56" y="7339" width="80" height="60" as="geometry" />
        </mxCell>
        <mxCell id="r2-rTQoDPKY6AHcK3uoC-12" value="Сценарий 1.3" style="rounded=1;whiteSpace=wrap;html=1;align=center;labelBackgroundColor=none;fillColor=#182E3E;strokeColor=#FFFFFF;fontColor=#FFFFFF;" parent="1" vertex="1">
          <mxGeometry x="478.56" y="7339" width="80" height="60" as="geometry" />
        </mxCell>
        <mxCell id="r2-rTQoDPKY6AHcK3uoC-13" value="Сценарий 1.1" style="rounded=1;whiteSpace=wrap;html=1;align=center;labelBackgroundColor=none;fillColor=#182E3E;strokeColor=#FFFFFF;fontColor=#FFFFFF;" parent="1" vertex="1">
          <mxGeometry x="247.56" y="7339" width="80" height="60" as="geometry" />
        </mxCell>
        <mxCell id="r2-rTQoDPKY6AHcK3uoC-14" value="Сценарий 1.4" style="rounded=1;whiteSpace=wrap;html=1;align=center;labelBackgroundColor=none;fillColor=#182E3E;strokeColor=#FFFFFF;fontColor=#FFFFFF;" parent="1" vertex="1">
          <mxGeometry x="570.44" y="7339" width="80" height="60" as="geometry" />
        </mxCell>
        <mxCell id="r2-rTQoDPKY6AHcK3uoC-15" value="Основание оформления" style="shape=hexagon;perimeter=hexagonPerimeter2;whiteSpace=wrap;html=1;fixedSize=1;rotation=90;fillColor=#182E3E;labelBorderColor=none;fontColor=#FFFFFF;horizontal=0;verticalAlign=middle;" parent="1" vertex="1">
          <mxGeometry x="414.56" y="7213" width="70" height="80" as="geometry" />
        </mxCell>
        <mxCell id="r2-rTQoDPKY6AHcK3uoC-16" value="" style="shape=flexArrow;endArrow=classic;html=1;rounded=0;width=24;endSize=8.67;" parent="1" edge="1">
          <mxGeometry width="50" height="50" relative="1" as="geometry">
            <mxPoint x="609.94" y="7398" as="sourcePoint" />
            <mxPoint x="609.94" y="7448" as="targetPoint" />
          </mxGeometry>
        </mxCell>
      </root>
    </mxGraphModel>
  </diagram>
  <diagram name="Сценарий 1.1" id="JOvhhju1vJe6IVOchgba">
    <mxGraphModel dx="1434" dy="-7437" grid="1" gridSize="10" guides="1" tooltips="1" connect="1" arrows="1" fold="1" page="1" pageScale="1" pageWidth="827" pageHeight="1169" background="#ffffff" math="0" shadow="0">
      <root>
        <mxCell id="AAR4OP5lc2W15-ps8cUp-0" />
        <mxCell id="AAR4OP5lc2W15-ps8cUp-1" parent="AAR4OP5lc2W15-ps8cUp-0" />
        <mxCell id="AAR4OP5lc2W15-ps8cUp-31" value="Сценарий 1.1 (ТС, основание 1)" style="text;html=1;strokeColor=none;fillColor=none;align=left;verticalAlign=middle;whiteSpace=wrap;rounded=0;fontColor=#000000;fontSize=24;" parent="AAR4OP5lc2W15-ps8cUp-1" vertex="1">
          <mxGeometry x="34" y="8200" width="790" height="30" as="geometry" />
        </mxCell>
        <mxCell id="AAR4OP5lc2W15-ps8cUp-170" style="edgeStyle=orthogonalEdgeStyle;rounded=0;orthogonalLoop=1;jettySize=auto;html=1;entryX=0.5;entryY=0;entryDx=0;entryDy=0;" parent="AAR4OP5lc2W15-ps8cUp-1" source="AAR4OP5lc2W15-ps8cUp-171" target="AAR4OP5lc2W15-ps8cUp-181" edge="1">
          <mxGeometry relative="1" as="geometry" />
        </mxCell>
        <mxCell id="AAR4OP5lc2W15-ps8cUp-171" value="Основание 01" style="rounded=1;whiteSpace=wrap;html=1;labelBackgroundColor=none;fillColor=#182E3E;strokeColor=#FFFFFF;fontColor=#FFFFFF;align=center;" parent="AAR4OP5lc2W15-ps8cUp-1" vertex="1">
          <mxGeometry x="158" y="8288" width="170" height="70" as="geometry" />
        </mxCell>
        <mxCell id="AAR4OP5lc2W15-ps8cUp-172" style="edgeStyle=orthogonalEdgeStyle;rounded=0;orthogonalLoop=1;jettySize=auto;html=1;entryX=0;entryY=0.5;entryDx=0;entryDy=0;exitX=1;exitY=0.5;exitDx=0;exitDy=0;" parent="AAR4OP5lc2W15-ps8cUp-1" source="AAR4OP5lc2W15-ps8cUp-173" target="AAR4OP5lc2W15-ps8cUp-171" edge="1">
          <mxGeometry relative="1" as="geometry">
            <mxPoint x="320.5" y="8325" as="sourcePoint" />
          </mxGeometry>
        </mxCell>
        <mxCell id="AAR4OP5lc2W15-ps8cUp-173" value="Сценарий 1.1" style="ellipse;whiteSpace=wrap;html=1;aspect=fixed;labelBackgroundColor=none;fillColor=none;strokeColor=#000000;fontColor=#000000;" parent="AAR4OP5lc2W15-ps8cUp-1" vertex="1">
          <mxGeometry x="9.5" y="8268" width="110" height="110" as="geometry" />
        </mxCell>
        <mxCell id="AAR4OP5lc2W15-ps8cUp-174" value="Да" style="edgeStyle=orthogonalEdgeStyle;rounded=0;orthogonalLoop=1;jettySize=auto;html=1;exitX=0;exitY=0.5;exitDx=0;exitDy=0;entryX=0.5;entryY=0;entryDx=0;entryDy=0;" parent="AAR4OP5lc2W15-ps8cUp-1" source="AAR4OP5lc2W15-ps8cUp-181" target="kzvZym46IhN8rusrSaz4-2" edge="1">
          <mxGeometry x="-0.8664" relative="1" as="geometry">
            <mxPoint x="571.75" y="8641" as="sourcePoint" />
            <mxPoint x="549.8800000000001" y="8716.38" as="targetPoint" />
            <mxPoint as="offset" />
          </mxGeometry>
        </mxCell>
        <mxCell id="AAR4OP5lc2W15-ps8cUp-180" value="Нет" style="edgeStyle=orthogonalEdgeStyle;rounded=0;orthogonalLoop=1;jettySize=auto;html=1;entryX=0.5;entryY=0;entryDx=0;entryDy=0;exitX=1;exitY=0.5;exitDx=0;exitDy=0;" parent="AAR4OP5lc2W15-ps8cUp-1" source="AAR4OP5lc2W15-ps8cUp-181" target="7ON9coMtM5uwJ_zx-vTZ-0" edge="1">
          <mxGeometry x="-0.3781" relative="1" as="geometry">
            <mxPoint x="749.5" y="8438" as="sourcePoint" />
            <mxPoint x="941" y="8435" as="targetPoint" />
            <mxPoint as="offset" />
          </mxGeometry>
        </mxCell>
        <mxCell id="AAR4OP5lc2W15-ps8cUp-181" value="&lt;font style=&quot;background-color: rgb(24, 46, 62);&quot; color=&quot;#ffffff&quot;&gt;По критериям (см. 1291 (категории ТС)) УС уплачивается?&lt;/font&gt;" style="rhombus;whiteSpace=wrap;html=1;fillColor=#182E3E;strokeColor=none;" parent="AAR4OP5lc2W15-ps8cUp-1" vertex="1">
          <mxGeometry x="457.75" y="8343" width="130" height="120" as="geometry" />
        </mxCell>
        <mxCell id="Kj1pHVmg4ox-R4OT8j8--1" style="edgeStyle=orthogonalEdgeStyle;rounded=0;orthogonalLoop=1;jettySize=auto;html=1;exitX=0.5;exitY=1;exitDx=0;exitDy=0;entryX=0.5;entryY=0;entryDx=0;entryDy=0;" edge="1" parent="AAR4OP5lc2W15-ps8cUp-1" source="AAR4OP5lc2W15-ps8cUp-195" target="Kj1pHVmg4ox-R4OT8j8--0">
          <mxGeometry relative="1" as="geometry" />
        </mxCell>
        <mxCell id="AAR4OP5lc2W15-ps8cUp-195" value="Ответ бота: статус электронного паспорта изменится на Действующий в течении 24 часов" style="rounded=1;whiteSpace=wrap;html=1;align=left;labelBackgroundColor=none;fillColor=#182E3E;strokeColor=#FFFFFF;fontColor=#FFFFFF;arcSize=6;" parent="AAR4OP5lc2W15-ps8cUp-1" vertex="1">
          <mxGeometry x="696.25" y="8638" width="123.5" height="82" as="geometry" />
        </mxCell>
        <mxCell id="ZxJSVEOtxAhlxN5m4MTA-1" style="edgeStyle=orthogonalEdgeStyle;rounded=0;orthogonalLoop=1;jettySize=auto;html=1;entryX=0.5;entryY=0;entryDx=0;entryDy=0;exitX=0.375;exitY=1;exitDx=0;exitDy=0;" parent="AAR4OP5lc2W15-ps8cUp-1" source="ZxJSVEOtxAhlxN5m4MTA-5" target="ZxJSVEOtxAhlxN5m4MTA-7" edge="1">
          <mxGeometry relative="1" as="geometry">
            <mxPoint x="234.25" y="9113.25" as="sourcePoint" />
          </mxGeometry>
        </mxCell>
        <mxCell id="ZxJSVEOtxAhlxN5m4MTA-2" style="edgeStyle=orthogonalEdgeStyle;rounded=0;orthogonalLoop=1;jettySize=auto;html=1;exitX=0.625;exitY=1;exitDx=0;exitDy=0;entryX=0.5;entryY=0;entryDx=0;entryDy=0;" parent="AAR4OP5lc2W15-ps8cUp-1" source="ZxJSVEOtxAhlxN5m4MTA-5" target="ZxJSVEOtxAhlxN5m4MTA-9" edge="1">
          <mxGeometry relative="1" as="geometry" />
        </mxCell>
        <mxCell id="ZxJSVEOtxAhlxN5m4MTA-3" style="edgeStyle=orthogonalEdgeStyle;rounded=0;orthogonalLoop=1;jettySize=auto;html=1;exitX=0.375;exitY=0;exitDx=0;exitDy=0;" parent="AAR4OP5lc2W15-ps8cUp-1" source="ZxJSVEOtxAhlxN5m4MTA-5" target="ZxJSVEOtxAhlxN5m4MTA-13" edge="1">
          <mxGeometry relative="1" as="geometry" />
        </mxCell>
        <mxCell id="ZxJSVEOtxAhlxN5m4MTA-4" style="edgeStyle=orthogonalEdgeStyle;rounded=0;orthogonalLoop=1;jettySize=auto;html=1;exitX=0.625;exitY=0;exitDx=0;exitDy=0;entryX=0.5;entryY=0;entryDx=0;entryDy=0;" parent="AAR4OP5lc2W15-ps8cUp-1" source="ZxJSVEOtxAhlxN5m4MTA-5" target="ZxJSVEOtxAhlxN5m4MTA-11" edge="1">
          <mxGeometry relative="1" as="geometry" />
        </mxCell>
        <mxCell id="ZxJSVEOtxAhlxN5m4MTA-5" value="Запрос сведений&amp;nbsp; &lt;br&gt;УТИЛЬ/ВЫПУСК&lt;br&gt;в &quot;попрошайке&quot; ФТС по идентиф. номеру" style="shape=hexagon;perimeter=hexagonPerimeter2;whiteSpace=wrap;html=1;fixedSize=1;rotation=90;fillColor=#182E3E;labelBorderColor=none;fontColor=#FFFFFF;horizontal=0;verticalAlign=middle;" parent="AAR4OP5lc2W15-ps8cUp-1" vertex="1">
          <mxGeometry x="269.75" y="8970.5" width="106.5" height="161" as="geometry" />
        </mxCell>
        <mxCell id="SvjE_qoyXY7L_MaZ-4RB-0" style="edgeStyle=orthogonalEdgeStyle;rounded=0;orthogonalLoop=1;jettySize=auto;html=1;exitX=0.5;exitY=1;exitDx=0;exitDy=0;entryX=0.5;entryY=0;entryDx=0;entryDy=0;" parent="AAR4OP5lc2W15-ps8cUp-1" source="ZxJSVEOtxAhlxN5m4MTA-7" target="ZxJSVEOtxAhlxN5m4MTA-19" edge="1">
          <mxGeometry relative="1" as="geometry" />
        </mxCell>
        <mxCell id="ZxJSVEOtxAhlxN5m4MTA-7" value="УТИЛЬ +&lt;br&gt;ВЫПУСК&amp;nbsp; +" style="rounded=1;whiteSpace=wrap;html=1;align=left;labelBackgroundColor=none;fillColor=#182E3E;strokeColor=#FFFFFF;fontColor=#FFFFFF;" parent="AAR4OP5lc2W15-ps8cUp-1" vertex="1">
          <mxGeometry x="30.25" y="9115.25" width="120" height="74" as="geometry" />
        </mxCell>
        <mxCell id="ZxJSVEOtxAhlxN5m4MTA-8" style="edgeStyle=orthogonalEdgeStyle;rounded=0;orthogonalLoop=1;jettySize=auto;html=1;exitX=0.5;exitY=1;exitDx=0;exitDy=0;entryX=0.5;entryY=0;entryDx=0;entryDy=0;" parent="AAR4OP5lc2W15-ps8cUp-1" source="ZxJSVEOtxAhlxN5m4MTA-9" edge="1">
          <mxGeometry relative="1" as="geometry">
            <mxPoint x="224.25" y="9221.75" as="targetPoint" />
          </mxGeometry>
        </mxCell>
        <mxCell id="ZxJSVEOtxAhlxN5m4MTA-9" value="УТИЛЬ -&lt;br style=&quot;border-color: var(--border-color);&quot;&gt;ВЫПУСК +" style="rounded=1;whiteSpace=wrap;html=1;align=left;labelBackgroundColor=none;fillColor=#182E3E;strokeColor=#FFFFFF;fontColor=#FFFFFF;" parent="AAR4OP5lc2W15-ps8cUp-1" vertex="1">
          <mxGeometry x="156.25" y="9115.25" width="120" height="74" as="geometry" />
        </mxCell>
        <mxCell id="ZxJSVEOtxAhlxN5m4MTA-10" style="edgeStyle=orthogonalEdgeStyle;rounded=0;orthogonalLoop=1;jettySize=auto;html=1;exitX=0.5;exitY=1;exitDx=0;exitDy=0;entryX=0.5;entryY=0;entryDx=0;entryDy=0;" parent="AAR4OP5lc2W15-ps8cUp-1" source="ZxJSVEOtxAhlxN5m4MTA-11" target="ZxJSVEOtxAhlxN5m4MTA-16" edge="1">
          <mxGeometry relative="1" as="geometry" />
        </mxCell>
        <mxCell id="ZxJSVEOtxAhlxN5m4MTA-11" value="УТИЛЬ +&lt;br style=&quot;border-color: var(--border-color);&quot;&gt;ВЫПУСК -" style="rounded=1;whiteSpace=wrap;html=1;align=left;labelBackgroundColor=none;fillColor=#182E3E;strokeColor=#FFFFFF;fontColor=#FFFFFF;" parent="AAR4OP5lc2W15-ps8cUp-1" vertex="1">
          <mxGeometry x="364.25" y="9115.25" width="120" height="74" as="geometry" />
        </mxCell>
        <mxCell id="ZxJSVEOtxAhlxN5m4MTA-12" style="edgeStyle=orthogonalEdgeStyle;rounded=0;orthogonalLoop=1;jettySize=auto;html=1;exitX=0.5;exitY=1;exitDx=0;exitDy=0;entryX=0.5;entryY=0;entryDx=0;entryDy=0;" parent="AAR4OP5lc2W15-ps8cUp-1" source="ZxJSVEOtxAhlxN5m4MTA-13" target="ZxJSVEOtxAhlxN5m4MTA-17" edge="1">
          <mxGeometry relative="1" as="geometry" />
        </mxCell>
        <mxCell id="ZxJSVEOtxAhlxN5m4MTA-13" value="УТИЛЬ -&lt;br style=&quot;border-color: var(--border-color);&quot;&gt;ВЫПУСК -" style="rounded=1;whiteSpace=wrap;html=1;align=left;labelBackgroundColor=none;fillColor=#182E3E;strokeColor=#FFFFFF;fontColor=#FFFFFF;" parent="AAR4OP5lc2W15-ps8cUp-1" vertex="1">
          <mxGeometry x="489.25" y="9115.25" width="120" height="74" as="geometry" />
        </mxCell>
        <mxCell id="ZxJSVEOtxAhlxN5m4MTA-16" value="Сценарий 1.1.3" style="rounded=1;whiteSpace=wrap;html=1;align=center;labelBackgroundColor=none;fillColor=#182E3E;strokeColor=#FFFFFF;fontColor=#FFFFFF;" parent="AAR4OP5lc2W15-ps8cUp-1" vertex="1">
          <mxGeometry x="364.25" y="9221.75" width="120" height="74" as="geometry" />
        </mxCell>
        <mxCell id="ZxJSVEOtxAhlxN5m4MTA-17" value="Сценарий 1.1.4" style="rounded=1;whiteSpace=wrap;html=1;align=center;labelBackgroundColor=none;fillColor=#182E3E;strokeColor=#FFFFFF;fontColor=#FFFFFF;" parent="AAR4OP5lc2W15-ps8cUp-1" vertex="1">
          <mxGeometry x="489.25" y="9221.75" width="120" height="74" as="geometry" />
        </mxCell>
        <mxCell id="ZxJSVEOtxAhlxN5m4MTA-19" value="Сценарий 1.1.1" style="rounded=1;whiteSpace=wrap;html=1;align=center;labelBackgroundColor=none;fillColor=#182E3E;strokeColor=#FFFFFF;fontColor=#FFFFFF;" parent="AAR4OP5lc2W15-ps8cUp-1" vertex="1">
          <mxGeometry x="30.25" y="9221.75" width="120" height="74" as="geometry" />
        </mxCell>
        <mxCell id="ZxJSVEOtxAhlxN5m4MTA-20" value="Сценарий 1.1.2" style="rounded=1;whiteSpace=wrap;html=1;align=center;labelBackgroundColor=none;fillColor=#182E3E;strokeColor=#FFFFFF;fontColor=#FFFFFF;" parent="AAR4OP5lc2W15-ps8cUp-1" vertex="1">
          <mxGeometry x="155.25" y="9221.75" width="120" height="74" as="geometry" />
        </mxCell>
        <mxCell id="kzvZym46IhN8rusrSaz4-0" value="Ответ бота: необходимо создать запрос в ЦОЗ. Требуется дополнительный анализ&amp;nbsp;" style="rounded=1;whiteSpace=wrap;html=1;align=left;labelBackgroundColor=none;fillColor=#182E3E;strokeColor=#182E3E;rotation=0;fontColor=#FFFFFF;arcSize=6;" parent="AAR4OP5lc2W15-ps8cUp-1" vertex="1">
          <mxGeometry x="150" y="8638" width="126.25" height="172" as="geometry" />
        </mxCell>
        <mxCell id="kzvZym46IhN8rusrSaz4-1" value="Нет" style="edgeStyle=orthogonalEdgeStyle;rounded=0;orthogonalLoop=1;jettySize=auto;html=1;exitX=0;exitY=0.5;exitDx=0;exitDy=0;entryX=0.5;entryY=0;entryDx=0;entryDy=0;" parent="AAR4OP5lc2W15-ps8cUp-1" source="kzvZym46IhN8rusrSaz4-2" target="kzvZym46IhN8rusrSaz4-0" edge="1">
          <mxGeometry x="-0.358" relative="1" as="geometry">
            <mxPoint as="offset" />
          </mxGeometry>
        </mxCell>
        <mxCell id="kzvZym46IhN8rusrSaz4-3" value="Да" style="edgeStyle=orthogonalEdgeStyle;rounded=0;orthogonalLoop=1;jettySize=auto;html=1;exitX=0.5;exitY=1;exitDx=0;exitDy=0;" parent="AAR4OP5lc2W15-ps8cUp-1" source="kzvZym46IhN8rusrSaz4-2" target="ekd2MFtCCuslvygLuyqd-1" edge="1">
          <mxGeometry x="-0.7419" relative="1" as="geometry">
            <mxPoint x="418.6247681501327" y="8800" as="sourcePoint" />
            <mxPoint as="offset" />
            <mxPoint x="323" y="8815" as="targetPoint" />
          </mxGeometry>
        </mxCell>
        <mxCell id="kzvZym46IhN8rusrSaz4-2" value="&lt;span style=&quot;background-color: rgb(24, 46, 62);&quot;&gt;По тех. характеристикам &lt;br&gt;УС уплачивается? &lt;br&gt;(1291, см план доработок)&lt;/span&gt;" style="rhombus;whiteSpace=wrap;html=1;fillColor=#182E3E;strokeColor=none;fontColor=#FFFFFF;" parent="AAR4OP5lc2W15-ps8cUp-1" vertex="1">
          <mxGeometry x="257.375" y="8534" width="131.25" height="126" as="geometry" />
        </mxCell>
        <mxCell id="7ON9coMtM5uwJ_zx-vTZ-2" value="Нет" style="edgeStyle=orthogonalEdgeStyle;rounded=0;orthogonalLoop=1;jettySize=auto;html=1;exitX=1;exitY=0.5;exitDx=0;exitDy=0;entryX=0.5;entryY=0;entryDx=0;entryDy=0;" parent="AAR4OP5lc2W15-ps8cUp-1" source="7ON9coMtM5uwJ_zx-vTZ-0" target="AAR4OP5lc2W15-ps8cUp-195" edge="1">
          <mxGeometry x="-0.7839" relative="1" as="geometry">
            <mxPoint as="offset" />
          </mxGeometry>
        </mxCell>
        <mxCell id="7ON9coMtM5uwJ_zx-vTZ-5" value="Да" style="edgeStyle=orthogonalEdgeStyle;rounded=0;orthogonalLoop=1;jettySize=auto;html=1;exitX=0;exitY=0.5;exitDx=0;exitDy=0;entryX=0.5;entryY=0;entryDx=0;entryDy=0;" parent="AAR4OP5lc2W15-ps8cUp-1" source="7ON9coMtM5uwJ_zx-vTZ-0" target="7ON9coMtM5uwJ_zx-vTZ-4" edge="1">
          <mxGeometry x="-0.4945" relative="1" as="geometry">
            <mxPoint as="offset" />
          </mxGeometry>
        </mxCell>
        <mxCell id="7ON9coMtM5uwJ_zx-vTZ-0" value="&lt;span style=&quot;background-color: rgb(24, 46, 62);&quot;&gt;Это повторный запрос по&amp;nbsp; этому номеру ЭПТС?&lt;/span&gt;" style="rhombus;whiteSpace=wrap;html=1;fillColor=#182E3E;strokeColor=none;fontColor=#FFFFFF;" parent="AAR4OP5lc2W15-ps8cUp-1" vertex="1">
          <mxGeometry x="557.25" y="8440" width="130" height="120" as="geometry" />
        </mxCell>
        <mxCell id="7ON9coMtM5uwJ_zx-vTZ-8" value="Нет" style="edgeStyle=orthogonalEdgeStyle;rounded=0;orthogonalLoop=1;jettySize=auto;html=1;exitX=0;exitY=0.5;exitDx=0;exitDy=0;entryX=0.5;entryY=0;entryDx=0;entryDy=0;" parent="AAR4OP5lc2W15-ps8cUp-1" source="7ON9coMtM5uwJ_zx-vTZ-4" target="7ON9coMtM5uwJ_zx-vTZ-7" edge="1">
          <mxGeometry x="-0.4062" relative="1" as="geometry">
            <mxPoint as="offset" />
          </mxGeometry>
        </mxCell>
        <mxCell id="7ON9coMtM5uwJ_zx-vTZ-12" value="Да" style="edgeStyle=orthogonalEdgeStyle;rounded=0;orthogonalLoop=1;jettySize=auto;html=1;exitX=1;exitY=0.5;exitDx=0;exitDy=0;" parent="AAR4OP5lc2W15-ps8cUp-1" source="7ON9coMtM5uwJ_zx-vTZ-4" target="7ON9coMtM5uwJ_zx-vTZ-11" edge="1">
          <mxGeometry x="-0.4921" relative="1" as="geometry">
            <mxPoint as="offset" />
          </mxGeometry>
        </mxCell>
        <mxCell id="7ON9coMtM5uwJ_zx-vTZ-4" value="&lt;span style=&quot;background-color: rgb(24, 46, 62);&quot;&gt;Последний запрос более 3 часов &lt;br&gt;назад?&lt;/span&gt;" style="rhombus;whiteSpace=wrap;html=1;fillColor=#182E3E;strokeColor=none;fontColor=#FFFFFF;" parent="AAR4OP5lc2W15-ps8cUp-1" vertex="1">
          <mxGeometry x="459" y="8535" width="130" height="120" as="geometry" />
        </mxCell>
        <mxCell id="7ON9coMtM5uwJ_zx-vTZ-7" value="Ответ бота: Со времени последнего обращения по данному электронному паспорту, сведения об УС не поступили в систему. Сведения об уплате УС поступают в течении 24 часов" style="rounded=1;whiteSpace=wrap;html=1;align=left;labelBackgroundColor=none;fillColor=#182E3E;strokeColor=#FFFFFF;fontColor=#FFFFFF;arcSize=5;" parent="AAR4OP5lc2W15-ps8cUp-1" vertex="1">
          <mxGeometry x="378" y="8638" width="120" height="172" as="geometry" />
        </mxCell>
        <mxCell id="7ON9coMtM5uwJ_zx-vTZ-11" value="Ответ бота: необходимо создать запрос в ЦОЗ. Требуется дополнительный анализ&amp;nbsp;" style="rounded=1;whiteSpace=wrap;html=1;align=left;labelBackgroundColor=none;fillColor=#182E3E;strokeColor=#182E3E;fontColor=#FFFFFF;arcSize=4;" parent="AAR4OP5lc2W15-ps8cUp-1" vertex="1">
          <mxGeometry x="554.69" y="8638" width="120" height="172" as="geometry" />
        </mxCell>
        <mxCell id="7ON9coMtM5uwJ_zx-vTZ-14" value="Должен появиться план доработки по 1291" style="shape=callout;whiteSpace=wrap;html=1;perimeter=calloutPerimeter;position2=0.08;fillColor=#f8cecc;strokeColor=#b85450;size=40;position=0.17;" parent="AAR4OP5lc2W15-ps8cUp-1" vertex="1">
          <mxGeometry x="530" y="8288" width="120" height="90" as="geometry" />
        </mxCell>
        <mxCell id="ekd2MFtCCuslvygLuyqd-0" value="РБ" style="edgeStyle=orthogonalEdgeStyle;rounded=0;orthogonalLoop=1;jettySize=auto;html=1;exitX=1;exitY=0.5;exitDx=0;exitDy=0;entryX=0;entryY=0.5;entryDx=0;entryDy=0;" parent="AAR4OP5lc2W15-ps8cUp-1" source="ekd2MFtCCuslvygLuyqd-1" target="ekd2MFtCCuslvygLuyqd-5" edge="1">
          <mxGeometry x="-0.8591" relative="1" as="geometry">
            <mxPoint x="996.685" y="8955.5" as="targetPoint" />
            <mxPoint as="offset" />
          </mxGeometry>
        </mxCell>
        <mxCell id="7NyPi7jg2kjvpyQbXFC9-0" value="РФ" style="edgeStyle=orthogonalEdgeStyle;rounded=0;orthogonalLoop=1;jettySize=auto;html=1;" edge="1" parent="AAR4OP5lc2W15-ps8cUp-1" source="ekd2MFtCCuslvygLuyqd-1" target="ZxJSVEOtxAhlxN5m4MTA-5">
          <mxGeometry x="-0.546" relative="1" as="geometry">
            <mxPoint as="offset" />
          </mxGeometry>
        </mxCell>
        <mxCell id="ekd2MFtCCuslvygLuyqd-1" value="&lt;span style=&quot;font-family: Helvetica; font-size: 12px; font-style: normal; font-variant-ligatures: normal; font-variant-caps: normal; font-weight: 400; letter-spacing: normal; orphans: 2; text-align: center; text-indent: 0px; text-transform: none; widows: 2; word-spacing: 0px; -webkit-text-stroke-width: 0px; background-color: rgb(24, 46, 62); text-decoration-thickness: initial; text-decoration-style: initial; text-decoration-color: initial; float: none; display: inline !important;&quot;&gt;Изготовитель ТС&lt;br&gt;РФ или РБ?&lt;br&gt;&lt;/span&gt;" style="rhombus;whiteSpace=wrap;html=1;fillColor=#182E3E;strokeColor=none;fontColor=#FFFFFF;" parent="AAR4OP5lc2W15-ps8cUp-1" vertex="1">
          <mxGeometry x="257.25" y="8823" width="131.25" height="126" as="geometry" />
        </mxCell>
        <mxCell id="ekd2MFtCCuslvygLuyqd-2" value="Ответ бота: изготовителю РБ необходимо обратиться в ФТС по вопросу уплаты УС" style="rounded=1;whiteSpace=wrap;html=1;align=left;labelBackgroundColor=none;fillColor=#182E3E;strokeColor=#FFFFFF;fontColor=#FFFFFF;arcSize=7;" parent="AAR4OP5lc2W15-ps8cUp-1" vertex="1">
          <mxGeometry x="699.75" y="8920" width="120" height="90" as="geometry" />
        </mxCell>
        <mxCell id="ekd2MFtCCuslvygLuyqd-3" value="Нет" style="edgeStyle=orthogonalEdgeStyle;rounded=0;orthogonalLoop=1;jettySize=auto;html=1;exitX=1;exitY=0.5;exitDx=0;exitDy=0;entryX=0.5;entryY=0;entryDx=0;entryDy=0;" parent="AAR4OP5lc2W15-ps8cUp-1" source="ekd2MFtCCuslvygLuyqd-5" target="ekd2MFtCCuslvygLuyqd-2" edge="1">
          <mxGeometry x="-0.5728" relative="1" as="geometry">
            <mxPoint as="offset" />
          </mxGeometry>
        </mxCell>
        <mxCell id="ekd2MFtCCuslvygLuyqd-4" value="Да" style="edgeStyle=orthogonalEdgeStyle;rounded=0;orthogonalLoop=1;jettySize=auto;html=1;entryX=0;entryY=0.5;entryDx=0;entryDy=0;exitX=0.5;exitY=1;exitDx=0;exitDy=0;" parent="AAR4OP5lc2W15-ps8cUp-1" source="ekd2MFtCCuslvygLuyqd-5" target="ekd2MFtCCuslvygLuyqd-6" edge="1">
          <mxGeometry x="-0.8297" relative="1" as="geometry">
            <mxPoint as="offset" />
          </mxGeometry>
        </mxCell>
        <mxCell id="ekd2MFtCCuslvygLuyqd-5" value="&lt;span style=&quot;background-color: rgb(24, 46, 62);&quot;&gt;Сведения &lt;br&gt;об уплате УС есть в&amp;nbsp;&quot;попрашайка&quot; ФТС по VIN?&lt;/span&gt;" style="rhombus;whiteSpace=wrap;html=1;fillColor=#182E3E;strokeColor=none;fontColor=#FFFFFF;" parent="AAR4OP5lc2W15-ps8cUp-1" vertex="1">
          <mxGeometry x="582.685" y="8824" width="130.12" height="125" as="geometry" />
        </mxCell>
        <mxCell id="QQsu-2T4xHfzjnroGKCx-1" style="edgeStyle=orthogonalEdgeStyle;rounded=0;orthogonalLoop=1;jettySize=auto;html=1;entryX=0.5;entryY=0;entryDx=0;entryDy=0;" edge="1" parent="AAR4OP5lc2W15-ps8cUp-1" source="ekd2MFtCCuslvygLuyqd-6" target="QQsu-2T4xHfzjnroGKCx-0">
          <mxGeometry relative="1" as="geometry" />
        </mxCell>
        <mxCell id="ekd2MFtCCuslvygLuyqd-6" value="Ответ бота: &lt;br&gt;статус электронного паспорта изменится на Действующий в течении 24 часов" style="rounded=1;whiteSpace=wrap;html=1;align=left;labelBackgroundColor=none;fillColor=#182E3E;strokeColor=#FFFFFF;fontColor=#FFFFFF;arcSize=6;" parent="AAR4OP5lc2W15-ps8cUp-1" vertex="1">
          <mxGeometry x="699.75" y="9057" width="120" height="90" as="geometry" />
        </mxCell>
        <mxCell id="QQsu-2T4xHfzjnroGKCx-0" value="Действие бота: инициация внесения сведений об УС&amp;nbsp;&lt;br style=&quot;border-color: var(--border-color);&quot;&gt;" style="rounded=1;whiteSpace=wrap;html=1;align=left;labelBackgroundColor=none;fillColor=#182E3E;strokeColor=#FFFFFF;fontColor=#FFFFFF;arcSize=6;verticalAlign=top;" vertex="1" parent="AAR4OP5lc2W15-ps8cUp-1">
          <mxGeometry x="699.75" y="9205.75" width="120" height="90" as="geometry" />
        </mxCell>
        <mxCell id="Kj1pHVmg4ox-R4OT8j8--0" value="Действие бота: инициация внесения сведений об &quot;УС не уплачивается&quot;&amp;nbsp;" style="rounded=1;whiteSpace=wrap;html=1;align=left;labelBackgroundColor=none;fillColor=#182E3E;strokeColor=#FFFFFF;fontColor=#FFFFFF;arcSize=6;" vertex="1" parent="AAR4OP5lc2W15-ps8cUp-1">
          <mxGeometry x="696.25" y="8746" width="123.5" height="80" as="geometry" />
        </mxCell>
      </root>
    </mxGraphModel>
  </diagram>
  <diagram name="Сценарий 1.1.1" id="CSyjlZetX4vrwZRZ1dMX">
    <mxGraphModel dx="1434" dy="-7437" grid="1" gridSize="10" guides="1" tooltips="1" connect="1" arrows="1" fold="1" page="1" pageScale="1" pageWidth="827" pageHeight="1169" background="#ffffff" math="0" shadow="0">
      <root>
        <mxCell id="HiTkOIAvF98srn9B4v1x-0" />
        <mxCell id="HiTkOIAvF98srn9B4v1x-1" parent="HiTkOIAvF98srn9B4v1x-0" />
        <mxCell id="HiTkOIAvF98srn9B4v1x-2" value="Сценарий 1.1.1 (ТС, основание 1, Утиль +, Выпуск +)" style="text;html=1;strokeColor=none;fillColor=none;align=left;verticalAlign=middle;whiteSpace=wrap;rounded=0;fontColor=#000000;fontSize=24;" parent="HiTkOIAvF98srn9B4v1x-1" vertex="1">
          <mxGeometry x="34" y="8200" width="790" height="30" as="geometry" />
        </mxCell>
        <mxCell id="mRIswL5pnw7yrIL3kZFt-0" style="edgeStyle=orthogonalEdgeStyle;rounded=0;orthogonalLoop=1;jettySize=auto;html=1;" parent="HiTkOIAvF98srn9B4v1x-1" source="HiTkOIAvF98srn9B4v1x-4" target="HiTkOIAvF98srn9B4v1x-41" edge="1">
          <mxGeometry relative="1" as="geometry" />
        </mxCell>
        <mxCell id="HiTkOIAvF98srn9B4v1x-4" value="Основание 01,&lt;br&gt;УТИЛЬ +&lt;br&gt;ВЫПУСК +" style="rounded=1;whiteSpace=wrap;html=1;labelBackgroundColor=none;fillColor=#182E3E;strokeColor=#FFFFFF;fontColor=#FFFFFF;align=left;" parent="HiTkOIAvF98srn9B4v1x-1" vertex="1">
          <mxGeometry x="242.5" y="8290" width="170" height="70" as="geometry" />
        </mxCell>
        <mxCell id="HiTkOIAvF98srn9B4v1x-5" style="edgeStyle=orthogonalEdgeStyle;rounded=0;orthogonalLoop=1;jettySize=auto;html=1;entryX=0;entryY=0.5;entryDx=0;entryDy=0;exitX=1;exitY=0.5;exitDx=0;exitDy=0;" parent="HiTkOIAvF98srn9B4v1x-1" source="HiTkOIAvF98srn9B4v1x-6" target="HiTkOIAvF98srn9B4v1x-4" edge="1">
          <mxGeometry relative="1" as="geometry">
            <mxPoint x="320.5" y="8325" as="sourcePoint" />
          </mxGeometry>
        </mxCell>
        <mxCell id="HiTkOIAvF98srn9B4v1x-6" value="Сценарий 1.1.1" style="ellipse;whiteSpace=wrap;html=1;aspect=fixed;labelBackgroundColor=none;fillColor=none;strokeColor=#000000;fontColor=#000000;" parent="HiTkOIAvF98srn9B4v1x-1" vertex="1">
          <mxGeometry x="63.5" y="8270" width="110" height="110" as="geometry" />
        </mxCell>
        <mxCell id="HiTkOIAvF98srn9B4v1x-41" value="Ответ бота: &lt;br&gt;согласно письму МПТ, электронный паспорт необходимо аннулировать, далее, оформить паспорт &lt;br&gt;по 2-му основанию" style="rounded=1;whiteSpace=wrap;html=1;align=left;labelBackgroundColor=none;fillColor=#182E3E;strokeColor=#FFFFFF;fontColor=#FFFFFF;" parent="HiTkOIAvF98srn9B4v1x-1" vertex="1">
          <mxGeometry x="239.5" y="8410" width="177.5" height="110" as="geometry" />
        </mxCell>
      </root>
    </mxGraphModel>
  </diagram>
  <diagram name="Сценарий 1.1.2" id="ekTPgMoKmwZRx_5fhZ7w">
    <mxGraphModel dx="1434" dy="-7437" grid="1" gridSize="10" guides="1" tooltips="1" connect="1" arrows="1" fold="1" page="1" pageScale="1" pageWidth="827" pageHeight="1169" background="#ffffff" math="0" shadow="0">
      <root>
        <mxCell id="n9l_rAA9ahvGljCCvTid-0" />
        <mxCell id="n9l_rAA9ahvGljCCvTid-1" parent="n9l_rAA9ahvGljCCvTid-0" />
        <mxCell id="n9l_rAA9ahvGljCCvTid-2" value="Сценарий 1.1.2 (ТС, основание 1, Утиль -,Выпуск +)" style="text;html=1;strokeColor=none;fillColor=none;align=left;verticalAlign=middle;whiteSpace=wrap;rounded=0;fontColor=#000000;fontSize=24;" parent="n9l_rAA9ahvGljCCvTid-1" vertex="1">
          <mxGeometry x="34" y="8200" width="790" height="30" as="geometry" />
        </mxCell>
        <mxCell id="WgwVrWJrMy69DcyKxKIr-1" style="edgeStyle=orthogonalEdgeStyle;rounded=0;orthogonalLoop=1;jettySize=auto;html=1;entryX=0.5;entryY=0;entryDx=0;entryDy=0;" parent="n9l_rAA9ahvGljCCvTid-1" source="n9l_rAA9ahvGljCCvTid-4" target="WgwVrWJrMy69DcyKxKIr-0" edge="1">
          <mxGeometry relative="1" as="geometry" />
        </mxCell>
        <mxCell id="n9l_rAA9ahvGljCCvTid-4" value="Основание 01,&lt;br style=&quot;border-color: var(--border-color);&quot;&gt;УТИЛЬ -&lt;span style=&quot;&quot;&gt;&lt;br&gt;ВЫПУСК +&lt;/span&gt;" style="rounded=1;whiteSpace=wrap;html=1;labelBackgroundColor=none;fillColor=#182E3E;strokeColor=#FFFFFF;fontColor=#FFFFFF;align=left;" parent="n9l_rAA9ahvGljCCvTid-1" vertex="1">
          <mxGeometry x="242.5" y="8290" width="170" height="70" as="geometry" />
        </mxCell>
        <mxCell id="n9l_rAA9ahvGljCCvTid-5" style="edgeStyle=orthogonalEdgeStyle;rounded=0;orthogonalLoop=1;jettySize=auto;html=1;entryX=0;entryY=0.5;entryDx=0;entryDy=0;exitX=1;exitY=0.5;exitDx=0;exitDy=0;" parent="n9l_rAA9ahvGljCCvTid-1" source="n9l_rAA9ahvGljCCvTid-6" target="n9l_rAA9ahvGljCCvTid-4" edge="1">
          <mxGeometry relative="1" as="geometry">
            <mxPoint x="320.5" y="8325" as="sourcePoint" />
          </mxGeometry>
        </mxCell>
        <mxCell id="n9l_rAA9ahvGljCCvTid-6" value="Сценарий 1.1.2" style="ellipse;whiteSpace=wrap;html=1;aspect=fixed;labelBackgroundColor=none;fillColor=none;strokeColor=#000000;fontColor=#000000;" parent="n9l_rAA9ahvGljCCvTid-1" vertex="1">
          <mxGeometry x="63.5" y="8270" width="110" height="110" as="geometry" />
        </mxCell>
        <mxCell id="WgwVrWJrMy69DcyKxKIr-0" value="Ответ бота: &lt;br&gt;согласно письму МПТ, электронный паспорт необходимо аннулировать, далее, оформить паспорт &lt;br&gt;по 2-му основанию" style="rounded=1;whiteSpace=wrap;html=1;align=left;labelBackgroundColor=none;fillColor=#182E3E;strokeColor=#FFFFFF;fontColor=#FFFFFF;" parent="n9l_rAA9ahvGljCCvTid-1" vertex="1">
          <mxGeometry x="239.5" y="8410" width="177.5" height="100" as="geometry" />
        </mxCell>
      </root>
    </mxGraphModel>
  </diagram>
  <diagram name="Сценарий 1.1.3" id="pSAgMWJiXJYPxPdzUyJ3">
    <mxGraphModel dx="1434" dy="-7437" grid="1" gridSize="10" guides="1" tooltips="1" connect="1" arrows="1" fold="1" page="1" pageScale="1" pageWidth="827" pageHeight="1169" background="#ffffff" math="0" shadow="0">
      <root>
        <mxCell id="AgLR_IB6QJqt0GQ6ZcV_-0" />
        <mxCell id="AgLR_IB6QJqt0GQ6ZcV_-1" parent="AgLR_IB6QJqt0GQ6ZcV_-0" />
        <mxCell id="AgLR_IB6QJqt0GQ6ZcV_-2" value="Сценарий 1.1.3 (ТС, основание 1, Утиль +, Выпуск -)" style="text;html=1;strokeColor=none;fillColor=none;align=left;verticalAlign=middle;whiteSpace=wrap;rounded=0;fontColor=#000000;fontSize=24;" parent="AgLR_IB6QJqt0GQ6ZcV_-1" vertex="1">
          <mxGeometry x="34" y="8200" width="776" height="30" as="geometry" />
        </mxCell>
        <mxCell id="H_eh9-Gm-I7ULqgzfSUv-0" style="edgeStyle=orthogonalEdgeStyle;rounded=0;orthogonalLoop=1;jettySize=auto;html=1;exitX=0.5;exitY=1;exitDx=0;exitDy=0;entryX=0.5;entryY=0;entryDx=0;entryDy=0;" parent="AgLR_IB6QJqt0GQ6ZcV_-1" source="AgLR_IB6QJqt0GQ6ZcV_-4" target="AgLR_IB6QJqt0GQ6ZcV_-13" edge="1">
          <mxGeometry relative="1" as="geometry" />
        </mxCell>
        <mxCell id="AgLR_IB6QJqt0GQ6ZcV_-4" value="Основание 01,&lt;br style=&quot;border-color: var(--border-color);&quot;&gt;&lt;span style=&quot;&quot;&gt;УТИЛЬ +&lt;/span&gt;&lt;span style=&quot;border-color: var(--border-color);&quot;&gt;&lt;br style=&quot;border-color: var(--border-color);&quot;&gt;ВЫПУСК -&lt;/span&gt;" style="rounded=1;whiteSpace=wrap;html=1;labelBackgroundColor=none;fillColor=#182E3E;strokeColor=#FFFFFF;fontColor=#FFFFFF;align=left;" parent="AgLR_IB6QJqt0GQ6ZcV_-1" vertex="1">
          <mxGeometry x="242.5" y="8290" width="170" height="70" as="geometry" />
        </mxCell>
        <mxCell id="AgLR_IB6QJqt0GQ6ZcV_-5" style="edgeStyle=orthogonalEdgeStyle;rounded=0;orthogonalLoop=1;jettySize=auto;html=1;entryX=0;entryY=0.5;entryDx=0;entryDy=0;exitX=1;exitY=0.5;exitDx=0;exitDy=0;" parent="AgLR_IB6QJqt0GQ6ZcV_-1" source="AgLR_IB6QJqt0GQ6ZcV_-6" target="AgLR_IB6QJqt0GQ6ZcV_-4" edge="1">
          <mxGeometry relative="1" as="geometry">
            <mxPoint x="320.5" y="8325" as="sourcePoint" />
          </mxGeometry>
        </mxCell>
        <mxCell id="AgLR_IB6QJqt0GQ6ZcV_-6" value="Сценарий 1.1.3" style="ellipse;whiteSpace=wrap;html=1;aspect=fixed;labelBackgroundColor=none;fillColor=none;strokeColor=#000000;fontColor=#000000;" parent="AgLR_IB6QJqt0GQ6ZcV_-1" vertex="1">
          <mxGeometry x="63.5" y="8270" width="110" height="110" as="geometry" />
        </mxCell>
        <mxCell id="nKjMprqqbtR9hn5DObcl-1" style="edgeStyle=orthogonalEdgeStyle;rounded=0;orthogonalLoop=1;jettySize=auto;html=1;entryX=0.5;entryY=0;entryDx=0;entryDy=0;" edge="1" parent="AgLR_IB6QJqt0GQ6ZcV_-1" source="AgLR_IB6QJqt0GQ6ZcV_-13" target="nKjMprqqbtR9hn5DObcl-0">
          <mxGeometry relative="1" as="geometry" />
        </mxCell>
        <mxCell id="AgLR_IB6QJqt0GQ6ZcV_-13" value="Ответ бота: &lt;br&gt;статус электронного паспорта изменится на Действующий в течении 24 часов&lt;br style=&quot;border-color: var(--border-color);&quot;&gt;" style="rounded=1;whiteSpace=wrap;html=1;align=left;labelBackgroundColor=none;fillColor=#182E3E;strokeColor=#FFFFFF;fontColor=#FFFFFF;verticalAlign=top;" parent="AgLR_IB6QJqt0GQ6ZcV_-1" vertex="1">
          <mxGeometry x="243.5" y="8404" width="167.5" height="86" as="geometry" />
        </mxCell>
        <mxCell id="nKjMprqqbtR9hn5DObcl-0" value="Действие бота: &lt;br&gt;инициация внесения сведений об УС&amp;nbsp;" style="rounded=1;whiteSpace=wrap;html=1;align=left;labelBackgroundColor=none;fillColor=#182E3E;strokeColor=#FFFFFF;fontColor=#FFFFFF;verticalAlign=top;" vertex="1" parent="AgLR_IB6QJqt0GQ6ZcV_-1">
          <mxGeometry x="243.75" y="8535" width="167.5" height="80" as="geometry" />
        </mxCell>
      </root>
    </mxGraphModel>
  </diagram>
  <diagram name="Сценарий 1.1.4" id="s3uf2Sy5Qdzig6pnithy">
    <mxGraphModel dx="1434" dy="-7437" grid="1" gridSize="10" guides="1" tooltips="1" connect="1" arrows="1" fold="1" page="1" pageScale="1" pageWidth="827" pageHeight="1169" background="#ffffff" math="0" shadow="0">
      <root>
        <mxCell id="MAX_smdc8RrAg0O-KF4C-0" />
        <mxCell id="MAX_smdc8RrAg0O-KF4C-1" parent="MAX_smdc8RrAg0O-KF4C-0" />
        <mxCell id="MAX_smdc8RrAg0O-KF4C-2" value="Сценарий 1.1.4 (ТС, основание 1, Утиль -, Выпуск -)" style="text;html=1;strokeColor=none;fillColor=none;align=left;verticalAlign=middle;whiteSpace=wrap;rounded=0;fontColor=#000000;fontSize=24;" parent="MAX_smdc8RrAg0O-KF4C-1" vertex="1">
          <mxGeometry x="34" y="8200" width="790" height="30" as="geometry" />
        </mxCell>
        <mxCell id="MAX_smdc8RrAg0O-KF4C-3" style="edgeStyle=orthogonalEdgeStyle;rounded=0;orthogonalLoop=1;jettySize=auto;html=1;entryX=0.5;entryY=0;entryDx=0;entryDy=0;" parent="MAX_smdc8RrAg0O-KF4C-1" source="MAX_smdc8RrAg0O-KF4C-4" target="VhMBu7QD5TGO-EvyPS2X-0" edge="1">
          <mxGeometry relative="1" as="geometry">
            <mxPoint x="550" y="8325" as="targetPoint" />
          </mxGeometry>
        </mxCell>
        <mxCell id="MAX_smdc8RrAg0O-KF4C-4" value="Основание 01&lt;br&gt;УТИЛЬ - &lt;br&gt;ВЫПУСК -" style="rounded=1;whiteSpace=wrap;html=1;labelBackgroundColor=none;fillColor=#182E3E;strokeColor=#FFFFFF;fontColor=#FFFFFF;align=left;" parent="MAX_smdc8RrAg0O-KF4C-1" vertex="1">
          <mxGeometry x="242.5" y="8290" width="170" height="70" as="geometry" />
        </mxCell>
        <mxCell id="MAX_smdc8RrAg0O-KF4C-5" style="edgeStyle=orthogonalEdgeStyle;rounded=0;orthogonalLoop=1;jettySize=auto;html=1;entryX=0;entryY=0.5;entryDx=0;entryDy=0;exitX=1;exitY=0.5;exitDx=0;exitDy=0;" parent="MAX_smdc8RrAg0O-KF4C-1" source="MAX_smdc8RrAg0O-KF4C-6" target="MAX_smdc8RrAg0O-KF4C-4" edge="1">
          <mxGeometry relative="1" as="geometry">
            <mxPoint x="320.5" y="8325" as="sourcePoint" />
          </mxGeometry>
        </mxCell>
        <mxCell id="MAX_smdc8RrAg0O-KF4C-6" value="Сценарий 1.1.4" style="ellipse;whiteSpace=wrap;html=1;aspect=fixed;labelBackgroundColor=none;fillColor=none;strokeColor=#000000;fontColor=#000000;" parent="MAX_smdc8RrAg0O-KF4C-1" vertex="1">
          <mxGeometry x="63.5" y="8270" width="110" height="110" as="geometry" />
        </mxCell>
        <mxCell id="MAX_smdc8RrAg0O-KF4C-12" value="Да" style="edgeStyle=orthogonalEdgeStyle;rounded=0;orthogonalLoop=1;jettySize=auto;html=1;entryX=0.5;entryY=0;entryDx=0;entryDy=0;exitX=0;exitY=0.5;exitDx=0;exitDy=0;" parent="MAX_smdc8RrAg0O-KF4C-1" source="MAX_smdc8RrAg0O-KF4C-26" target="MAX_smdc8RrAg0O-KF4C-14" edge="1">
          <mxGeometry x="-0.6289" relative="1" as="geometry">
            <mxPoint x="211" y="8763" as="sourcePoint" />
            <mxPoint as="offset" />
          </mxGeometry>
        </mxCell>
        <mxCell id="MAX_smdc8RrAg0O-KF4C-14" value="Ответ бота: &lt;br&gt;обратитесь к Изготовителю, если вы конечный собственник ТС. Обратитесь в ФНС для уточнения информации по уплате утилизационного сбора, если вы Изготовитель." style="rounded=1;whiteSpace=wrap;html=1;align=left;labelBackgroundColor=none;fillColor=#182E3E;strokeColor=#182E3E;fontColor=#FFFFFF;arcSize=6;" parent="MAX_smdc8RrAg0O-KF4C-1" vertex="1">
          <mxGeometry x="34" y="8786.75" width="178" height="113.25" as="geometry" />
        </mxCell>
        <mxCell id="MAX_smdc8RrAg0O-KF4C-17" value="Да" style="edgeStyle=orthogonalEdgeStyle;rounded=0;orthogonalLoop=1;jettySize=auto;html=1;entryX=0.5;entryY=0;entryDx=0;entryDy=0;exitX=1;exitY=0.5;exitDx=0;exitDy=0;" parent="MAX_smdc8RrAg0O-KF4C-1" source="MAX_smdc8RrAg0O-KF4C-19" target="cHBtnwsfUW1m2JOV3Ifp-0" edge="1">
          <mxGeometry x="-0.8234" relative="1" as="geometry">
            <mxPoint x="703.25" y="8548" as="targetPoint" />
            <mxPoint as="offset" />
          </mxGeometry>
        </mxCell>
        <mxCell id="MAX_smdc8RrAg0O-KF4C-18" value="Нет" style="edgeStyle=orthogonalEdgeStyle;rounded=0;orthogonalLoop=1;jettySize=auto;html=1;entryX=0.5;entryY=0;entryDx=0;entryDy=0;exitX=0;exitY=0.5;exitDx=0;exitDy=0;" parent="MAX_smdc8RrAg0O-KF4C-1" source="MAX_smdc8RrAg0O-KF4C-19" target="MAX_smdc8RrAg0O-KF4C-26" edge="1">
          <mxGeometry x="-0.7429" y="1" relative="1" as="geometry">
            <mxPoint x="490.9999999999998" y="8727.25" as="targetPoint" />
            <mxPoint as="offset" />
          </mxGeometry>
        </mxCell>
        <mxCell id="MAX_smdc8RrAg0O-KF4C-19" value="&lt;span style=&quot;background-color: rgb(24, 46, 62);&quot;&gt;Сведения &lt;br&gt;об уплате УС есть в&amp;nbsp;&quot;попрашайка&quot; ФНС по VIN&lt;/span&gt;?&lt;span style=&quot;background-color: rgb(24, 46, 62);&quot;&gt;&lt;br&gt;&lt;/span&gt;" style="rhombus;whiteSpace=wrap;html=1;fillColor=#182E3E;strokeColor=none;fontColor=#FFFFFF;" parent="MAX_smdc8RrAg0O-KF4C-1" vertex="1">
          <mxGeometry x="346" y="8489" width="120" height="120" as="geometry" />
        </mxCell>
        <mxCell id="MAX_smdc8RrAg0O-KF4C-25" value="Нет" style="edgeStyle=orthogonalEdgeStyle;rounded=0;orthogonalLoop=1;jettySize=auto;html=1;entryX=0.5;entryY=0;entryDx=0;entryDy=0;exitX=1;exitY=0.5;exitDx=0;exitDy=0;" parent="MAX_smdc8RrAg0O-KF4C-1" source="MAX_smdc8RrAg0O-KF4C-26" target="MAX_smdc8RrAg0O-KF4C-27" edge="1">
          <mxGeometry x="-0.6078" y="-1" relative="1" as="geometry">
            <mxPoint x="467.25" y="8705.75" as="targetPoint" />
            <mxPoint as="offset" />
            <mxPoint x="348" y="8763" as="sourcePoint" />
          </mxGeometry>
        </mxCell>
        <mxCell id="MAX_smdc8RrAg0O-KF4C-26" value="&lt;span style=&quot;background-color: rgb(24, 46, 62);&quot;&gt;Новое ТС,&lt;br&gt;&amp;nbsp;с даты оформления ЭПТС менее 3 мес.?&lt;/span&gt;" style="rhombus;whiteSpace=wrap;html=1;fillColor=#182E3E;strokeColor=none;fontColor=#FFFFFF;" parent="MAX_smdc8RrAg0O-KF4C-1" vertex="1">
          <mxGeometry x="159" y="8636" width="125" height="124" as="geometry" />
        </mxCell>
        <mxCell id="MAX_smdc8RrAg0O-KF4C-27" value="Ответ бота: &lt;br&gt;необходимо создать запрос в ЦОЗ. Требуется дополнительный анализ&amp;nbsp;" style="rounded=1;whiteSpace=wrap;html=1;align=left;labelBackgroundColor=none;fillColor=#182E3E;strokeColor=#FFFFFF;fontColor=#FFFFFF;arcSize=7;" parent="MAX_smdc8RrAg0O-KF4C-1" vertex="1">
          <mxGeometry x="227" y="8786.75" width="180" height="113.25" as="geometry" />
        </mxCell>
        <mxCell id="c3UCfmPGpPCire22bYs5-5" style="edgeStyle=orthogonalEdgeStyle;rounded=0;orthogonalLoop=1;jettySize=auto;html=1;entryX=0.5;entryY=0;entryDx=0;entryDy=0;" edge="1" parent="MAX_smdc8RrAg0O-KF4C-1" source="gQIJcExUuYygrxRkoXuy-0" target="c3UCfmPGpPCire22bYs5-4">
          <mxGeometry relative="1" as="geometry" />
        </mxCell>
        <mxCell id="gQIJcExUuYygrxRkoXuy-0" value="Ответ бота: статус электронного паспорта изменится на Действующий в течении 24 часов" style="rounded=1;whiteSpace=wrap;html=1;align=left;labelBackgroundColor=none;fillColor=#182E3E;strokeColor=#FFFFFF;fontColor=#FFFFFF;arcSize=7;verticalAlign=top;" parent="MAX_smdc8RrAg0O-KF4C-1" vertex="1">
          <mxGeometry x="614" y="8786.75" width="183.25" height="73.25" as="geometry" />
        </mxCell>
        <mxCell id="r6wiMZAgeolUHc3PUdpz-0" style="edgeStyle=orthogonalEdgeStyle;rounded=0;orthogonalLoop=1;jettySize=auto;html=1;exitX=0;exitY=0.5;exitDx=0;exitDy=0;entryX=0.5;entryY=0;entryDx=0;entryDy=0;" parent="MAX_smdc8RrAg0O-KF4C-1" source="VhMBu7QD5TGO-EvyPS2X-0" target="MAX_smdc8RrAg0O-KF4C-19" edge="1">
          <mxGeometry relative="1" as="geometry" />
        </mxCell>
        <mxCell id="I4XtRcVSLH88FvjF4pch-0" value="Нет" style="edgeLabel;html=1;align=center;verticalAlign=middle;resizable=0;points=[];" parent="r6wiMZAgeolUHc3PUdpz-0" vertex="1" connectable="0">
          <mxGeometry x="-0.1833" y="-2" relative="1" as="geometry">
            <mxPoint x="40" y="2" as="offset" />
          </mxGeometry>
        </mxCell>
        <mxCell id="I4XtRcVSLH88FvjF4pch-1" value="Да" style="edgeStyle=orthogonalEdgeStyle;rounded=0;orthogonalLoop=1;jettySize=auto;html=1;exitX=1;exitY=0.5;exitDx=0;exitDy=0;entryX=0.5;entryY=0;entryDx=0;entryDy=0;" parent="MAX_smdc8RrAg0O-KF4C-1" source="VhMBu7QD5TGO-EvyPS2X-0" target="gQIJcExUuYygrxRkoXuy-0" edge="1">
          <mxGeometry x="-0.8595" relative="1" as="geometry">
            <mxPoint as="offset" />
          </mxGeometry>
        </mxCell>
        <mxCell id="VhMBu7QD5TGO-EvyPS2X-0" value="&lt;span style=&quot;background-color: rgb(24, 46, 62);&quot;&gt;Сведения &lt;br&gt;об уплате УС есть в&amp;nbsp;&quot;попрашайка&quot; ФНС по номеру ЭПТС?&lt;br&gt;&lt;/span&gt;" style="rhombus;whiteSpace=wrap;html=1;fillColor=#182E3E;strokeColor=none;fontColor=#FFFFFF;" parent="MAX_smdc8RrAg0O-KF4C-1" vertex="1">
          <mxGeometry x="536" y="8352" width="120" height="120" as="geometry" />
        </mxCell>
        <mxCell id="c3UCfmPGpPCire22bYs5-2" style="edgeStyle=orthogonalEdgeStyle;rounded=0;orthogonalLoop=1;jettySize=auto;html=1;exitX=0.5;exitY=1;exitDx=0;exitDy=0;entryX=0.5;entryY=0;entryDx=0;entryDy=0;" edge="1" parent="MAX_smdc8RrAg0O-KF4C-1" source="cHBtnwsfUW1m2JOV3Ifp-0" target="c3UCfmPGpPCire22bYs5-0">
          <mxGeometry relative="1" as="geometry" />
        </mxCell>
        <mxCell id="cHBtnwsfUW1m2JOV3Ifp-0" value="Ответ бота: &lt;br&gt;статус электронного паспорта изменится на Действующий в течении 24 часов" style="rounded=1;whiteSpace=wrap;html=1;align=left;labelBackgroundColor=none;fillColor=#182E3E;strokeColor=#FFFFFF;fontColor=#FFFFFF;arcSize=5;verticalAlign=top;" vertex="1" parent="MAX_smdc8RrAg0O-KF4C-1">
          <mxGeometry x="420" y="8788.25" width="183.25" height="71.75" as="geometry" />
        </mxCell>
        <mxCell id="c3UCfmPGpPCire22bYs5-3" style="edgeStyle=orthogonalEdgeStyle;rounded=0;orthogonalLoop=1;jettySize=auto;html=1;exitX=0.5;exitY=1;exitDx=0;exitDy=0;entryX=0.5;entryY=0;entryDx=0;entryDy=0;" edge="1" parent="MAX_smdc8RrAg0O-KF4C-1" source="c3UCfmPGpPCire22bYs5-0" target="c3UCfmPGpPCire22bYs5-1">
          <mxGeometry relative="1" as="geometry" />
        </mxCell>
        <mxCell id="c3UCfmPGpPCire22bYs5-0" value="Ответ бота: &lt;br&gt;номер паспорта не бьётся с идентификационным номером, обратитесь в ФНС" style="rounded=1;whiteSpace=wrap;html=1;align=left;labelBackgroundColor=none;fillColor=#182E3E;strokeColor=#FFFFFF;fontColor=#FFFFFF;arcSize=5;verticalAlign=top;" vertex="1" parent="MAX_smdc8RrAg0O-KF4C-1">
          <mxGeometry x="420" y="8900" width="183.25" height="70" as="geometry" />
        </mxCell>
        <mxCell id="c3UCfmPGpPCire22bYs5-1" value="Действие бота: инициация внесения сведений об УС&amp;nbsp;&amp;nbsp;" style="rounded=1;whiteSpace=wrap;html=1;align=left;labelBackgroundColor=none;fillColor=#182E3E;strokeColor=#FFFFFF;fontColor=#FFFFFF;arcSize=5;verticalAlign=top;" vertex="1" parent="MAX_smdc8RrAg0O-KF4C-1">
          <mxGeometry x="420" y="9010" width="183.25" height="70" as="geometry" />
        </mxCell>
        <mxCell id="c3UCfmPGpPCire22bYs5-4" value="Действие бота: инициация внесения сведений об УС&amp;nbsp;&amp;nbsp;" style="rounded=1;whiteSpace=wrap;html=1;align=left;labelBackgroundColor=none;fillColor=#182E3E;strokeColor=#FFFFFF;fontColor=#FFFFFF;arcSize=7;verticalAlign=top;" vertex="1" parent="MAX_smdc8RrAg0O-KF4C-1">
          <mxGeometry x="614" y="8900" width="183.25" height="70" as="geometry" />
        </mxCell>
      </root>
    </mxGraphModel>
  </diagram>
  <diagram name="Сценарий 1.2" id="kPuiZ-nG33_AcMQMin0p">
    <mxGraphModel dx="1434" dy="-8606" grid="1" gridSize="10" guides="1" tooltips="1" connect="1" arrows="1" fold="1" page="1" pageScale="1" pageWidth="827" pageHeight="1169" background="#ffffff" math="0" shadow="0">
      <root>
        <mxCell id="VYaH0PhCDZjBfqPTTpXe-0" />
        <mxCell id="VYaH0PhCDZjBfqPTTpXe-1" parent="VYaH0PhCDZjBfqPTTpXe-0" />
        <mxCell id="VYaH0PhCDZjBfqPTTpXe-35" value="Сценарий 1.2 (ТС, основание 2)" style="text;html=1;strokeColor=none;fillColor=none;align=left;verticalAlign=middle;whiteSpace=wrap;rounded=0;fontColor=#000000;fontSize=24;" parent="VYaH0PhCDZjBfqPTTpXe-1" vertex="1">
          <mxGeometry x="19" y="9372" width="790" height="30" as="geometry" />
        </mxCell>
        <mxCell id="VYaH0PhCDZjBfqPTTpXe-36" style="edgeStyle=orthogonalEdgeStyle;rounded=0;orthogonalLoop=1;jettySize=auto;html=1;entryX=0.5;entryY=0;entryDx=0;entryDy=0;exitX=1;exitY=0.5;exitDx=0;exitDy=0;" parent="VYaH0PhCDZjBfqPTTpXe-1" source="VYaH0PhCDZjBfqPTTpXe-37" target="VYaH0PhCDZjBfqPTTpXe-108" edge="1">
          <mxGeometry relative="1" as="geometry" />
        </mxCell>
        <mxCell id="VYaH0PhCDZjBfqPTTpXe-37" value="Основание 02" style="rounded=1;whiteSpace=wrap;html=1;labelBackgroundColor=none;fillColor=#182E3E;strokeColor=#FFFFFF;fontColor=#FFFFFF;align=center;" parent="VYaH0PhCDZjBfqPTTpXe-1" vertex="1">
          <mxGeometry x="146" y="9442" width="170" height="70" as="geometry" />
        </mxCell>
        <mxCell id="VYaH0PhCDZjBfqPTTpXe-38" style="edgeStyle=orthogonalEdgeStyle;rounded=0;orthogonalLoop=1;jettySize=auto;html=1;entryX=0;entryY=0.5;entryDx=0;entryDy=0;" parent="VYaH0PhCDZjBfqPTTpXe-1" source="VYaH0PhCDZjBfqPTTpXe-39" target="VYaH0PhCDZjBfqPTTpXe-37" edge="1">
          <mxGeometry relative="1" as="geometry" />
        </mxCell>
        <mxCell id="VYaH0PhCDZjBfqPTTpXe-39" value="Сценарий 1.2" style="ellipse;whiteSpace=wrap;html=1;aspect=fixed;labelBackgroundColor=none;fillColor=none;strokeColor=#000000;fontColor=#000000;" parent="VYaH0PhCDZjBfqPTTpXe-1" vertex="1">
          <mxGeometry x="6" y="9422" width="110" height="110" as="geometry" />
        </mxCell>
        <mxCell id="VYaH0PhCDZjBfqPTTpXe-107" value="Нет" style="edgeStyle=orthogonalEdgeStyle;rounded=0;orthogonalLoop=1;jettySize=auto;html=1;entryX=0;entryY=0.5;entryDx=0;entryDy=0;exitX=1;exitY=0.5;exitDx=0;exitDy=0;" parent="VYaH0PhCDZjBfqPTTpXe-1" source="VYaH0PhCDZjBfqPTTpXe-108" target="LsxaXjkZuE5SQYUfmCX7-0" edge="1">
          <mxGeometry x="-0.4402" relative="1" as="geometry">
            <mxPoint as="offset" />
            <mxPoint x="520" y="9556" as="targetPoint" />
          </mxGeometry>
        </mxCell>
        <mxCell id="I1QRsUqQ1UeBarrZlhoZ-0" value="Да" style="edgeStyle=orthogonalEdgeStyle;rounded=0;orthogonalLoop=1;jettySize=auto;html=1;" parent="VYaH0PhCDZjBfqPTTpXe-1" source="VYaH0PhCDZjBfqPTTpXe-108" target="iV5noo_2vL9fjbrnWoyM-4" edge="1">
          <mxGeometry x="-0.5754" y="1" relative="1" as="geometry">
            <mxPoint as="offset" />
          </mxGeometry>
        </mxCell>
        <mxCell id="VYaH0PhCDZjBfqPTTpXe-108" value="&lt;span style=&quot;background-color: rgb(24, 46, 62);&quot;&gt;ЭПТС оформлен на основании&amp;nbsp; &lt;br&gt;ДОС?&lt;/span&gt;" style="rhombus;whiteSpace=wrap;html=1;fillColor=#182E3E;strokeColor=none;fontColor=#FFFFFF;" parent="VYaH0PhCDZjBfqPTTpXe-1" vertex="1">
          <mxGeometry x="319.25" y="9500" width="117" height="113" as="geometry" />
        </mxCell>
        <mxCell id="iV5noo_2vL9fjbrnWoyM-0" style="edgeStyle=orthogonalEdgeStyle;rounded=0;orthogonalLoop=1;jettySize=auto;html=1;entryX=0.5;entryY=0;entryDx=0;entryDy=0;exitX=0.375;exitY=1;exitDx=0;exitDy=0;" parent="VYaH0PhCDZjBfqPTTpXe-1" source="iV5noo_2vL9fjbrnWoyM-4" target="iV5noo_2vL9fjbrnWoyM-5" edge="1">
          <mxGeometry relative="1" as="geometry">
            <mxPoint x="348.75" y="9750.25" as="sourcePoint" />
          </mxGeometry>
        </mxCell>
        <mxCell id="iV5noo_2vL9fjbrnWoyM-1" style="edgeStyle=orthogonalEdgeStyle;rounded=0;orthogonalLoop=1;jettySize=auto;html=1;exitX=0.625;exitY=1;exitDx=0;exitDy=0;entryX=0.5;entryY=0;entryDx=0;entryDy=0;" parent="VYaH0PhCDZjBfqPTTpXe-1" source="iV5noo_2vL9fjbrnWoyM-4" target="iV5noo_2vL9fjbrnWoyM-6" edge="1">
          <mxGeometry relative="1" as="geometry" />
        </mxCell>
        <mxCell id="iV5noo_2vL9fjbrnWoyM-2" style="edgeStyle=orthogonalEdgeStyle;rounded=0;orthogonalLoop=1;jettySize=auto;html=1;exitX=0.375;exitY=0;exitDx=0;exitDy=0;" parent="VYaH0PhCDZjBfqPTTpXe-1" source="iV5noo_2vL9fjbrnWoyM-4" target="iV5noo_2vL9fjbrnWoyM-8" edge="1">
          <mxGeometry relative="1" as="geometry" />
        </mxCell>
        <mxCell id="iV5noo_2vL9fjbrnWoyM-3" style="edgeStyle=orthogonalEdgeStyle;rounded=0;orthogonalLoop=1;jettySize=auto;html=1;exitX=0.625;exitY=0;exitDx=0;exitDy=0;entryX=0.5;entryY=0;entryDx=0;entryDy=0;" parent="VYaH0PhCDZjBfqPTTpXe-1" source="iV5noo_2vL9fjbrnWoyM-4" target="iV5noo_2vL9fjbrnWoyM-7" edge="1">
          <mxGeometry relative="1" as="geometry" />
        </mxCell>
        <mxCell id="iV5noo_2vL9fjbrnWoyM-4" value="Запрос сведений&amp;nbsp; &lt;br&gt;утиля/выпуска &lt;br&gt;в &quot;попрошайке&quot; ФТС" style="shape=hexagon;perimeter=hexagonPerimeter2;whiteSpace=wrap;html=1;fixedSize=1;rotation=90;fillColor=#182E3E;labelBorderColor=none;fontColor=#FFFFFF;horizontal=0;verticalAlign=middle;" parent="VYaH0PhCDZjBfqPTTpXe-1" vertex="1">
          <mxGeometry x="324.5" y="9637" width="106.5" height="161" as="geometry" />
        </mxCell>
        <mxCell id="I1QRsUqQ1UeBarrZlhoZ-5" style="edgeStyle=orthogonalEdgeStyle;rounded=0;orthogonalLoop=1;jettySize=auto;html=1;entryX=0.5;entryY=0;entryDx=0;entryDy=0;" parent="VYaH0PhCDZjBfqPTTpXe-1" source="iV5noo_2vL9fjbrnWoyM-5" target="I1QRsUqQ1UeBarrZlhoZ-1" edge="1">
          <mxGeometry relative="1" as="geometry" />
        </mxCell>
        <mxCell id="iV5noo_2vL9fjbrnWoyM-5" value="УТИЛЬ +&lt;br&gt;ВЫПУСК&amp;nbsp; +" style="rounded=1;whiteSpace=wrap;html=1;align=left;labelBackgroundColor=none;fillColor=#182E3E;strokeColor=#FFFFFF;fontColor=#FFFFFF;" parent="VYaH0PhCDZjBfqPTTpXe-1" vertex="1">
          <mxGeometry x="91" y="9778.25" width="120" height="74" as="geometry" />
        </mxCell>
        <mxCell id="I1QRsUqQ1UeBarrZlhoZ-6" style="edgeStyle=orthogonalEdgeStyle;rounded=0;orthogonalLoop=1;jettySize=auto;html=1;exitX=0.5;exitY=1;exitDx=0;exitDy=0;entryX=0.5;entryY=0;entryDx=0;entryDy=0;" parent="VYaH0PhCDZjBfqPTTpXe-1" source="iV5noo_2vL9fjbrnWoyM-6" target="I1QRsUqQ1UeBarrZlhoZ-2" edge="1">
          <mxGeometry relative="1" as="geometry" />
        </mxCell>
        <mxCell id="iV5noo_2vL9fjbrnWoyM-6" value="УТИЛЬ -&lt;br style=&quot;border-color: var(--border-color);&quot;&gt;ВЫПУСК +" style="rounded=1;whiteSpace=wrap;html=1;align=left;labelBackgroundColor=none;fillColor=#182E3E;strokeColor=#FFFFFF;fontColor=#FFFFFF;" parent="VYaH0PhCDZjBfqPTTpXe-1" vertex="1">
          <mxGeometry x="215" y="9778.25" width="120" height="74" as="geometry" />
        </mxCell>
        <mxCell id="I1QRsUqQ1UeBarrZlhoZ-7" style="edgeStyle=orthogonalEdgeStyle;rounded=0;orthogonalLoop=1;jettySize=auto;html=1;exitX=0.5;exitY=1;exitDx=0;exitDy=0;entryX=0.5;entryY=0;entryDx=0;entryDy=0;" parent="VYaH0PhCDZjBfqPTTpXe-1" source="iV5noo_2vL9fjbrnWoyM-7" target="I1QRsUqQ1UeBarrZlhoZ-3" edge="1">
          <mxGeometry relative="1" as="geometry" />
        </mxCell>
        <mxCell id="iV5noo_2vL9fjbrnWoyM-7" value="УТИЛЬ +&lt;br style=&quot;border-color: var(--border-color);&quot;&gt;ВЫПУСК -" style="rounded=1;whiteSpace=wrap;html=1;align=left;labelBackgroundColor=none;fillColor=#182E3E;strokeColor=#FFFFFF;fontColor=#FFFFFF;" parent="VYaH0PhCDZjBfqPTTpXe-1" vertex="1">
          <mxGeometry x="423" y="9778.25" width="120" height="74" as="geometry" />
        </mxCell>
        <mxCell id="I1QRsUqQ1UeBarrZlhoZ-8" style="edgeStyle=orthogonalEdgeStyle;rounded=0;orthogonalLoop=1;jettySize=auto;html=1;exitX=0.5;exitY=1;exitDx=0;exitDy=0;entryX=0.5;entryY=0;entryDx=0;entryDy=0;" parent="VYaH0PhCDZjBfqPTTpXe-1" source="iV5noo_2vL9fjbrnWoyM-8" target="I1QRsUqQ1UeBarrZlhoZ-4" edge="1">
          <mxGeometry relative="1" as="geometry" />
        </mxCell>
        <mxCell id="iV5noo_2vL9fjbrnWoyM-8" value="УТИЛЬ -&lt;br style=&quot;border-color: var(--border-color);&quot;&gt;ВЫПУСК -" style="rounded=1;whiteSpace=wrap;html=1;align=left;labelBackgroundColor=none;fillColor=#182E3E;strokeColor=#FFFFFF;fontColor=#FFFFFF;" parent="VYaH0PhCDZjBfqPTTpXe-1" vertex="1">
          <mxGeometry x="547" y="9778.25" width="120" height="74" as="geometry" />
        </mxCell>
        <mxCell id="I1QRsUqQ1UeBarrZlhoZ-1" value="Сценарий 1.2.1" style="rounded=1;whiteSpace=wrap;html=1;align=left;labelBackgroundColor=none;fillColor=#182E3E;strokeColor=#FFFFFF;fontColor=#FFFFFF;" parent="VYaH0PhCDZjBfqPTTpXe-1" vertex="1">
          <mxGeometry x="91" y="9884.25" width="120" height="74" as="geometry" />
        </mxCell>
        <mxCell id="I1QRsUqQ1UeBarrZlhoZ-2" value="Сценарий 1.2.2" style="rounded=1;whiteSpace=wrap;html=1;align=left;labelBackgroundColor=none;fillColor=#182E3E;strokeColor=#FFFFFF;fontColor=#FFFFFF;" parent="VYaH0PhCDZjBfqPTTpXe-1" vertex="1">
          <mxGeometry x="215" y="9884.25" width="120" height="74" as="geometry" />
        </mxCell>
        <mxCell id="I1QRsUqQ1UeBarrZlhoZ-3" value="Сценарий 1.2.3" style="rounded=1;whiteSpace=wrap;html=1;align=left;labelBackgroundColor=none;fillColor=#182E3E;strokeColor=#FFFFFF;fontColor=#FFFFFF;" parent="VYaH0PhCDZjBfqPTTpXe-1" vertex="1">
          <mxGeometry x="423" y="9884.25" width="120" height="74" as="geometry" />
        </mxCell>
        <mxCell id="I1QRsUqQ1UeBarrZlhoZ-4" value="Сценарий 1.2.4" style="rounded=1;whiteSpace=wrap;html=1;align=left;labelBackgroundColor=none;fillColor=#182E3E;strokeColor=#FFFFFF;fontColor=#FFFFFF;" parent="VYaH0PhCDZjBfqPTTpXe-1" vertex="1">
          <mxGeometry x="547" y="9884.25" width="120" height="74" as="geometry" />
        </mxCell>
        <mxCell id="LsxaXjkZuE5SQYUfmCX7-0" value="Сценарий 1.2.5" style="rounded=1;whiteSpace=wrap;html=1;align=left;labelBackgroundColor=none;fillColor=#182E3E;strokeColor=#FFFFFF;fontColor=#FFFFFF;" vertex="1" parent="VYaH0PhCDZjBfqPTTpXe-1">
          <mxGeometry x="510" y="9519.5" width="120" height="74" as="geometry" />
        </mxCell>
      </root>
    </mxGraphModel>
  </diagram>
  <diagram name="Сценарий 1.2.1" id="ZpRLzvkZo5WhGsYp3QE6">
    <mxGraphModel dx="1434" dy="-14451" grid="1" gridSize="10" guides="1" tooltips="1" connect="1" arrows="1" fold="1" page="1" pageScale="1" pageWidth="827" pageHeight="1169" background="#ffffff" math="0" shadow="0">
      <root>
        <mxCell id="u3UnE9kQ4Nsh5Vx7VViE-0" />
        <mxCell id="u3UnE9kQ4Nsh5Vx7VViE-1" parent="u3UnE9kQ4Nsh5Vx7VViE-0" />
        <mxCell id="u3UnE9kQ4Nsh5Vx7VViE-88" value="Сценарий 1.2.1 (ТС, основание 2, УТИЛЬ +, ВЫПУСК +)&amp;nbsp;" style="text;html=1;strokeColor=none;fillColor=none;align=left;verticalAlign=middle;whiteSpace=wrap;rounded=0;fontColor=#000000;fontSize=24;" parent="u3UnE9kQ4Nsh5Vx7VViE-1" vertex="1">
          <mxGeometry x="66.5" y="15212" width="743.5" height="30" as="geometry" />
        </mxCell>
        <mxCell id="u3UnE9kQ4Nsh5Vx7VViE-111" style="edgeStyle=orthogonalEdgeStyle;rounded=0;orthogonalLoop=1;jettySize=auto;html=1;entryX=0;entryY=0.5;entryDx=0;entryDy=0;" parent="u3UnE9kQ4Nsh5Vx7VViE-1" source="u3UnE9kQ4Nsh5Vx7VViE-112" target="pBKteGiNlVV0OZadMUJP-0" edge="1">
          <mxGeometry relative="1" as="geometry">
            <mxPoint x="411.5" y="15376" as="targetPoint" />
          </mxGeometry>
        </mxCell>
        <mxCell id="u3UnE9kQ4Nsh5Vx7VViE-112" value="Сценарий 1.2.1" style="ellipse;whiteSpace=wrap;html=1;aspect=fixed;labelBackgroundColor=none;fillColor=none;strokeColor=#000000;fontColor=#000000;" parent="u3UnE9kQ4Nsh5Vx7VViE-1" vertex="1">
          <mxGeometry x="81" y="15280" width="110" height="110" as="geometry" />
        </mxCell>
        <mxCell id="Vt9aqDGGSEql7GRKlqY5-2" style="edgeStyle=orthogonalEdgeStyle;rounded=0;orthogonalLoop=1;jettySize=auto;html=1;entryX=0.5;entryY=0;entryDx=0;entryDy=0;" edge="1" parent="u3UnE9kQ4Nsh5Vx7VViE-1" source="HBff2kAbPorFwVoNKtiB-0" target="Vt9aqDGGSEql7GRKlqY5-0">
          <mxGeometry relative="1" as="geometry" />
        </mxCell>
        <mxCell id="HBff2kAbPorFwVoNKtiB-0" value="Ответ бота: &lt;br&gt;статус электронного паспорта изменится на Действующий в течении 24 часов" style="rounded=1;whiteSpace=wrap;html=1;align=left;labelBackgroundColor=none;fillColor=#182E3E;strokeColor=#FFFFFF;fontColor=#FFFFFF;arcSize=6;" parent="u3UnE9kQ4Nsh5Vx7VViE-1" vertex="1">
          <mxGeometry x="311.5" y="15418" width="166" height="82" as="geometry" />
        </mxCell>
        <mxCell id="pBKteGiNlVV0OZadMUJP-1" style="edgeStyle=orthogonalEdgeStyle;rounded=0;orthogonalLoop=1;jettySize=auto;html=1;exitX=0.5;exitY=1;exitDx=0;exitDy=0;entryX=0.5;entryY=0;entryDx=0;entryDy=0;" parent="u3UnE9kQ4Nsh5Vx7VViE-1" source="pBKteGiNlVV0OZadMUJP-0" target="HBff2kAbPorFwVoNKtiB-0" edge="1">
          <mxGeometry relative="1" as="geometry" />
        </mxCell>
        <mxCell id="pBKteGiNlVV0OZadMUJP-0" value="Основание 02,&lt;br&gt;УТИЛЬ +&lt;br&gt;ВЫПУСК +" style="rounded=1;whiteSpace=wrap;html=1;labelBackgroundColor=none;fillColor=#182E3E;strokeColor=#FFFFFF;fontColor=#FFFFFF;align=left;arcSize=11;" parent="u3UnE9kQ4Nsh5Vx7VViE-1" vertex="1">
          <mxGeometry x="309.5" y="15300" width="170" height="70" as="geometry" />
        </mxCell>
        <mxCell id="Vt9aqDGGSEql7GRKlqY5-0" value="Действие бота: &lt;br&gt;инициация внесения сведений об УС" style="rounded=1;whiteSpace=wrap;html=1;align=left;labelBackgroundColor=none;fillColor=#182E3E;strokeColor=#FFFFFF;fontColor=#FFFFFF;arcSize=6;horizontal=1;verticalAlign=top;" vertex="1" parent="u3UnE9kQ4Nsh5Vx7VViE-1">
          <mxGeometry x="311.5" y="15540" width="166" height="80" as="geometry" />
        </mxCell>
      </root>
    </mxGraphModel>
  </diagram>
  <diagram name="Сценарий 1.2.2" id="J0rTzBK-12rKt40CffSH">
    <mxGraphModel dx="1434" dy="-15620" grid="1" gridSize="10" guides="1" tooltips="1" connect="1" arrows="1" fold="1" page="1" pageScale="1" pageWidth="827" pageHeight="1169" background="#ffffff" math="0" shadow="0">
      <root>
        <mxCell id="0rqs7pwxLPwOh1rA1IC4-0" />
        <mxCell id="0rqs7pwxLPwOh1rA1IC4-1" parent="0rqs7pwxLPwOh1rA1IC4-0" />
        <mxCell id="0rqs7pwxLPwOh1rA1IC4-114" style="edgeStyle=orthogonalEdgeStyle;rounded=0;orthogonalLoop=1;jettySize=auto;html=1;exitX=1;exitY=0.5;exitDx=0;exitDy=0;entryX=0;entryY=0.5;entryDx=0;entryDy=0;" parent="0rqs7pwxLPwOh1rA1IC4-1" source="0rqs7pwxLPwOh1rA1IC4-115" target="FGaqswzOEYBg3uJ6ctxT-1" edge="1">
          <mxGeometry relative="1" as="geometry">
            <mxPoint x="538" y="16520" as="targetPoint" />
          </mxGeometry>
        </mxCell>
        <mxCell id="0rqs7pwxLPwOh1rA1IC4-115" value="Сценарий 1.2.2" style="ellipse;whiteSpace=wrap;html=1;aspect=fixed;labelBackgroundColor=none;fillColor=none;strokeColor=#000000;fontColor=#000000;" parent="0rqs7pwxLPwOh1rA1IC4-1" vertex="1">
          <mxGeometry x="79.25" y="16441" width="110" height="110" as="geometry" />
        </mxCell>
        <mxCell id="0rqs7pwxLPwOh1rA1IC4-116" value="Сценарий 1.2.2 (ТС, основание 2, УТИЛЬ -, ВЫПУСК +)&amp;nbsp;" style="text;html=1;strokeColor=none;fillColor=none;align=left;verticalAlign=middle;whiteSpace=wrap;rounded=0;fontColor=#000000;fontSize=24;" parent="0rqs7pwxLPwOh1rA1IC4-1" vertex="1">
          <mxGeometry x="30" y="16380" width="790" height="30" as="geometry" />
        </mxCell>
        <mxCell id="bRUiFZQlcqykzWJ2KGQI-1" style="edgeStyle=orthogonalEdgeStyle;rounded=0;orthogonalLoop=1;jettySize=auto;html=1;entryX=0.5;entryY=0;entryDx=0;entryDy=0;" edge="1" parent="0rqs7pwxLPwOh1rA1IC4-1" source="tqREnzlzuWxuppGUkLla-2" target="bRUiFZQlcqykzWJ2KGQI-0">
          <mxGeometry relative="1" as="geometry" />
        </mxCell>
        <mxCell id="tqREnzlzuWxuppGUkLla-2" value="Ответ бота: &lt;br&gt;отсутствуют сведения об УС в АС Автотранспорт, обратитесь в ФТС" style="rounded=1;whiteSpace=wrap;html=1;align=left;labelBackgroundColor=none;fillColor=#182E3E;strokeColor=#FFFFFF;fontColor=#FFFFFF;arcSize=5;verticalAlign=top;" parent="0rqs7pwxLPwOh1rA1IC4-1" vertex="1">
          <mxGeometry x="290.78" y="16576" width="173.48" height="84" as="geometry" />
        </mxCell>
        <mxCell id="FGaqswzOEYBg3uJ6ctxT-2" style="edgeStyle=orthogonalEdgeStyle;rounded=0;orthogonalLoop=1;jettySize=auto;html=1;" parent="0rqs7pwxLPwOh1rA1IC4-1" source="FGaqswzOEYBg3uJ6ctxT-1" target="tqREnzlzuWxuppGUkLla-2" edge="1">
          <mxGeometry relative="1" as="geometry" />
        </mxCell>
        <mxCell id="FGaqswzOEYBg3uJ6ctxT-1" value="Основание 02,&lt;br&gt;УТИЛЬ -&lt;br&gt;ВЫПУСК +" style="rounded=1;whiteSpace=wrap;html=1;labelBackgroundColor=none;fillColor=#182E3E;strokeColor=#FFFFFF;fontColor=#FFFFFF;align=left;arcSize=8;" parent="0rqs7pwxLPwOh1rA1IC4-1" vertex="1">
          <mxGeometry x="292.52" y="16461" width="170" height="70" as="geometry" />
        </mxCell>
        <mxCell id="bRUiFZQlcqykzWJ2KGQI-0" value="Действие бота: &lt;br&gt;инициация внесения сведений о выпуске&amp;nbsp;" style="rounded=1;whiteSpace=wrap;html=1;align=left;labelBackgroundColor=none;fillColor=#182E3E;strokeColor=#FFFFFF;fontColor=#FFFFFF;arcSize=5;verticalAlign=top;" vertex="1" parent="0rqs7pwxLPwOh1rA1IC4-1">
          <mxGeometry x="290.78" y="16710" width="173.48" height="84" as="geometry" />
        </mxCell>
      </root>
    </mxGraphModel>
  </diagram>
  <diagram name="Сценарий 1.2.3" id="Qe5-GVv4NUi5rG1BBYlr">
    <mxGraphModel dx="1434" dy="-16789" grid="1" gridSize="10" guides="1" tooltips="1" connect="1" arrows="1" fold="1" page="1" pageScale="1" pageWidth="827" pageHeight="1169" background="#ffffff" math="0" shadow="0">
      <root>
        <mxCell id="K2id4XoYnU2ftwrVcuQJ-0" />
        <mxCell id="K2id4XoYnU2ftwrVcuQJ-1" parent="K2id4XoYnU2ftwrVcuQJ-0" />
        <mxCell id="K2id4XoYnU2ftwrVcuQJ-150" style="edgeStyle=orthogonalEdgeStyle;rounded=0;orthogonalLoop=1;jettySize=auto;html=1;entryX=0;entryY=0.5;entryDx=0;entryDy=0;" parent="K2id4XoYnU2ftwrVcuQJ-1" source="K2id4XoYnU2ftwrVcuQJ-151" target="hEEnCfzave-cSggataK7-0" edge="1">
          <mxGeometry relative="1" as="geometry">
            <mxPoint x="470.8800000000001" y="17713.370000000003" as="targetPoint" />
          </mxGeometry>
        </mxCell>
        <mxCell id="K2id4XoYnU2ftwrVcuQJ-151" value="Сценарий 1.2.3" style="ellipse;whiteSpace=wrap;html=1;aspect=fixed;labelBackgroundColor=none;fillColor=none;strokeColor=#000000;fontColor=#000000;" parent="K2id4XoYnU2ftwrVcuQJ-1" vertex="1">
          <mxGeometry x="78.5" y="17619" width="110" height="110" as="geometry" />
        </mxCell>
        <mxCell id="K2id4XoYnU2ftwrVcuQJ-152" value="Сценарий 1.2.3 (ТС, основание 2, УТИЛЬ +, ВЫПУСК -)&amp;nbsp;" style="text;html=1;strokeColor=none;fillColor=none;align=left;verticalAlign=middle;whiteSpace=wrap;rounded=0;fontColor=#000000;fontSize=24;" parent="K2id4XoYnU2ftwrVcuQJ-1" vertex="1">
          <mxGeometry x="10" y="17546" width="809" height="56" as="geometry" />
        </mxCell>
        <mxCell id="yPIugAyAwADckcrQLdbl-1" style="edgeStyle=orthogonalEdgeStyle;rounded=0;orthogonalLoop=1;jettySize=auto;html=1;exitX=0.5;exitY=1;exitDx=0;exitDy=0;entryX=0.5;entryY=0;entryDx=0;entryDy=0;" edge="1" parent="K2id4XoYnU2ftwrVcuQJ-1" source="vNZB2QwMkaj6WQvsPzcQ-1" target="yPIugAyAwADckcrQLdbl-0">
          <mxGeometry relative="1" as="geometry" />
        </mxCell>
        <mxCell id="vNZB2QwMkaj6WQvsPzcQ-1" value="Ответ бота: &lt;br&gt;отсутствуют сведения о выпуске&amp;nbsp; в АС Автотранспорт, обратитесь в ФТС" style="rounded=1;whiteSpace=wrap;html=1;align=left;labelBackgroundColor=none;fillColor=#182E3E;strokeColor=#FFFFFF;fontColor=#FFFFFF;arcSize=6;verticalAlign=top;" parent="K2id4XoYnU2ftwrVcuQJ-1" vertex="1">
          <mxGeometry x="310" y="17757" width="160" height="83" as="geometry" />
        </mxCell>
        <mxCell id="BUt5eUs-YoVFmO22NAHW-0" style="edgeStyle=orthogonalEdgeStyle;rounded=0;orthogonalLoop=1;jettySize=auto;html=1;entryX=0.5;entryY=0;entryDx=0;entryDy=0;" parent="K2id4XoYnU2ftwrVcuQJ-1" source="hEEnCfzave-cSggataK7-0" target="vNZB2QwMkaj6WQvsPzcQ-1" edge="1">
          <mxGeometry relative="1" as="geometry" />
        </mxCell>
        <mxCell id="hEEnCfzave-cSggataK7-0" value="Основание 02,&lt;br&gt;УТИЛЬ +&lt;br&gt;ВЫПУСК -" style="rounded=1;whiteSpace=wrap;html=1;labelBackgroundColor=none;fillColor=#182E3E;strokeColor=#FFFFFF;fontColor=#FFFFFF;align=left;" parent="K2id4XoYnU2ftwrVcuQJ-1" vertex="1">
          <mxGeometry x="305" y="17639" width="170" height="70" as="geometry" />
        </mxCell>
        <mxCell id="yPIugAyAwADckcrQLdbl-0" value="Действие бота: &lt;br&gt;инициация внесения сведений об УС&amp;nbsp;" style="rounded=1;whiteSpace=wrap;html=1;align=left;labelBackgroundColor=none;fillColor=#182E3E;strokeColor=#FFFFFF;fontColor=#FFFFFF;arcSize=6;verticalAlign=top;" vertex="1" parent="K2id4XoYnU2ftwrVcuQJ-1">
          <mxGeometry x="310" y="17890" width="160" height="83" as="geometry" />
        </mxCell>
      </root>
    </mxGraphModel>
  </diagram>
  <diagram name="Сценарий 1.2.4" id="yTmTxTAFa0RF8yLZop1J">
    <mxGraphModel dx="1434" dy="-16789" grid="1" gridSize="10" guides="1" tooltips="1" connect="1" arrows="1" fold="1" page="1" pageScale="1" pageWidth="827" pageHeight="1169" background="#ffffff" math="0" shadow="0">
      <root>
        <mxCell id="5DC3PUpKaVYdiBclCVId-0" />
        <mxCell id="5DC3PUpKaVYdiBclCVId-1" parent="5DC3PUpKaVYdiBclCVId-0" />
        <mxCell id="Rabhbu3Q3tlK0oiyqkPW-0" style="edgeStyle=orthogonalEdgeStyle;rounded=0;orthogonalLoop=1;jettySize=auto;html=1;exitX=1;exitY=0.5;exitDx=0;exitDy=0;entryX=0;entryY=0.5;entryDx=0;entryDy=0;" parent="5DC3PUpKaVYdiBclCVId-1" source="5DC3PUpKaVYdiBclCVId-11" target="xrWis2OxNs5f9_-lOYTv-0" edge="1">
          <mxGeometry relative="1" as="geometry" />
        </mxCell>
        <mxCell id="5DC3PUpKaVYdiBclCVId-11" value="Сценарий 1.2.4" style="ellipse;whiteSpace=wrap;html=1;aspect=fixed;labelBackgroundColor=none;fillColor=none;strokeColor=#000000;fontColor=#000000;" parent="5DC3PUpKaVYdiBclCVId-1" vertex="1">
          <mxGeometry x="48.5" y="17619" width="110" height="110" as="geometry" />
        </mxCell>
        <mxCell id="5DC3PUpKaVYdiBclCVId-12" value="Сценарий 1.2.4 (ТС, основание 2, УТИЛЬ -, ВЫПУСК -)&amp;nbsp;" style="text;html=1;strokeColor=none;fillColor=none;align=left;verticalAlign=middle;whiteSpace=wrap;rounded=0;fontColor=#000000;fontSize=24;" parent="5DC3PUpKaVYdiBclCVId-1" vertex="1">
          <mxGeometry x="10" y="17546" width="809" height="56" as="geometry" />
        </mxCell>
        <mxCell id="8_psRhtc8PMo9vWyGIrn-3" value="Ответ бота: &lt;br&gt;необходимо обратиться в ФТС РФ&amp;nbsp;&amp;nbsp;" style="rounded=1;whiteSpace=wrap;html=1;align=left;labelBackgroundColor=none;fillColor=#182E3E;strokeColor=#FFFFFF;fontColor=#FFFFFF;arcSize=8;verticalAlign=top;" parent="5DC3PUpKaVYdiBclCVId-1" vertex="1">
          <mxGeometry x="281" y="17756" width="170" height="84" as="geometry" />
        </mxCell>
        <mxCell id="Rabhbu3Q3tlK0oiyqkPW-1" style="edgeStyle=orthogonalEdgeStyle;rounded=0;orthogonalLoop=1;jettySize=auto;html=1;exitX=0.5;exitY=1;exitDx=0;exitDy=0;entryX=0.5;entryY=0;entryDx=0;entryDy=0;" parent="5DC3PUpKaVYdiBclCVId-1" source="xrWis2OxNs5f9_-lOYTv-0" target="8_psRhtc8PMo9vWyGIrn-3" edge="1">
          <mxGeometry relative="1" as="geometry" />
        </mxCell>
        <mxCell id="xrWis2OxNs5f9_-lOYTv-0" value="Основание 02,&lt;br&gt;УТИЛЬ -&lt;br&gt;ВЫПУСК -" style="rounded=1;whiteSpace=wrap;html=1;labelBackgroundColor=none;fillColor=#182E3E;strokeColor=#FFFFFF;fontColor=#FFFFFF;align=left;" parent="5DC3PUpKaVYdiBclCVId-1" vertex="1">
          <mxGeometry x="281" y="17639" width="170" height="70" as="geometry" />
        </mxCell>
      </root>
    </mxGraphModel>
  </diagram>
  <diagram name="Сценарий 1.2.5" id="FbpiyYUETvsoh9Qo5Q-3">
    <mxGraphModel dx="1434" dy="-17958" grid="1" gridSize="10" guides="1" tooltips="1" connect="1" arrows="1" fold="1" page="1" pageScale="1" pageWidth="827" pageHeight="1169" background="#ffffff" math="0" shadow="0">
      <root>
        <mxCell id="Btc_0np4UFDnGC-fJ4G9-0" />
        <mxCell id="Btc_0np4UFDnGC-fJ4G9-1" parent="Btc_0np4UFDnGC-fJ4G9-0" />
        <mxCell id="Btc_0np4UFDnGC-fJ4G9-145" value="Да" style="edgeStyle=orthogonalEdgeStyle;rounded=0;orthogonalLoop=1;jettySize=auto;html=1;entryX=0;entryY=0.5;entryDx=0;entryDy=0;exitX=1;exitY=0.5;exitDx=0;exitDy=0;" parent="Btc_0np4UFDnGC-fJ4G9-1" source="Btc_0np4UFDnGC-fJ4G9-147" target="Btc_0np4UFDnGC-fJ4G9-257" edge="1">
          <mxGeometry x="-0.2364" relative="1" as="geometry">
            <mxPoint as="offset" />
          </mxGeometry>
        </mxCell>
        <mxCell id="Btc_0np4UFDnGC-fJ4G9-146" value="Нет" style="edgeStyle=orthogonalEdgeStyle;rounded=0;orthogonalLoop=1;jettySize=auto;html=1;entryX=0.5;entryY=0;entryDx=0;entryDy=0;exitX=0;exitY=0.5;exitDx=0;exitDy=0;" parent="Btc_0np4UFDnGC-fJ4G9-1" source="Btc_0np4UFDnGC-fJ4G9-147" target="Btc_0np4UFDnGC-fJ4G9-149" edge="1">
          <mxGeometry x="-0.5896" relative="1" as="geometry">
            <mxPoint as="offset" />
          </mxGeometry>
        </mxCell>
        <mxCell id="Btc_0np4UFDnGC-fJ4G9-147" value="&lt;span style=&quot;background-color: rgb(24, 46, 62);&quot;&gt;Заявка в ЦОЗ есть?&lt;/span&gt;" style="rhombus;whiteSpace=wrap;html=1;fillColor=#182E3E;strokeColor=none;fontColor=#FFFFFF;" parent="Btc_0np4UFDnGC-fJ4G9-1" vertex="1">
          <mxGeometry x="241.25" y="18955" width="111" height="100" as="geometry" />
        </mxCell>
        <mxCell id="Btc_0np4UFDnGC-fJ4G9-148" value="Действие бота: &lt;br&gt;зачитывание текста ответа в заявке" style="rounded=1;whiteSpace=wrap;html=1;align=left;labelBackgroundColor=none;fillColor=#182E3E;strokeColor=#FFFFFF;fontColor=#FFFFFF;arcSize=6;" parent="Btc_0np4UFDnGC-fJ4G9-1" vertex="1">
          <mxGeometry x="603" y="19093" width="170" height="80.75" as="geometry" />
        </mxCell>
        <mxCell id="Btc_0np4UFDnGC-fJ4G9-149" value="Ответ бота: &lt;br&gt;необходимо обратиться в УО для оформления заявки в ЦОЗ с приложением подтверждающих документов" style="rounded=1;whiteSpace=wrap;html=1;align=left;labelBackgroundColor=none;fillColor=#182E3E;strokeColor=#FFFFFF;fontColor=#FFFFFF;arcSize=9;" parent="Btc_0np4UFDnGC-fJ4G9-1" vertex="1">
          <mxGeometry x="121" y="19091" width="177" height="82" as="geometry" />
        </mxCell>
        <mxCell id="Btc_0np4UFDnGC-fJ4G9-166" style="edgeStyle=orthogonalEdgeStyle;rounded=0;orthogonalLoop=1;jettySize=auto;html=1;exitX=1;exitY=0.5;exitDx=0;exitDy=0;entryX=0;entryY=0.5;entryDx=0;entryDy=0;" parent="Btc_0np4UFDnGC-fJ4G9-1" source="Btc_0np4UFDnGC-fJ4G9-167" target="V3_IDay-q5nCG4edSz4D-0" edge="1">
          <mxGeometry relative="1" as="geometry" />
        </mxCell>
        <mxCell id="Btc_0np4UFDnGC-fJ4G9-167" value="Сценарий 1.2.5" style="ellipse;whiteSpace=wrap;html=1;aspect=fixed;labelBackgroundColor=none;fillColor=none;strokeColor=#000000;fontColor=#000000;" parent="Btc_0np4UFDnGC-fJ4G9-1" vertex="1">
          <mxGeometry x="40.5" y="18811" width="110" height="110" as="geometry" />
        </mxCell>
        <mxCell id="Btc_0np4UFDnGC-fJ4G9-168" value="Сценарий 1.2.5 (ТС, основание 2, без ДОС)&amp;nbsp;" style="text;html=1;strokeColor=none;fillColor=none;align=left;verticalAlign=middle;whiteSpace=wrap;rounded=0;fontColor=#000000;fontSize=24;" parent="Btc_0np4UFDnGC-fJ4G9-1" vertex="1">
          <mxGeometry x="90" y="18730" width="720" height="56" as="geometry" />
        </mxCell>
        <mxCell id="Btc_0np4UFDnGC-fJ4G9-256" value="Нет" style="edgeStyle=orthogonalEdgeStyle;rounded=0;orthogonalLoop=1;jettySize=auto;html=1;entryX=0.5;entryY=0;entryDx=0;entryDy=0;" parent="Btc_0np4UFDnGC-fJ4G9-1" source="Btc_0np4UFDnGC-fJ4G9-257" target="Btc_0np4UFDnGC-fJ4G9-258" edge="1">
          <mxGeometry x="-0.2857" relative="1" as="geometry">
            <mxPoint as="offset" />
          </mxGeometry>
        </mxCell>
        <mxCell id="Btc_0np4UFDnGC-fJ4G9-257" value="&lt;span style=&quot;background-color: rgb(24, 46, 62);&quot;&gt;Статус заявки в ЦОЗ выполнено?&lt;/span&gt;" style="rhombus;whiteSpace=wrap;html=1;fillColor=#182E3E;strokeColor=none;fontColor=#FFFFFF;" parent="Btc_0np4UFDnGC-fJ4G9-1" vertex="1">
          <mxGeometry x="393.5" y="18955" width="111" height="100" as="geometry" />
        </mxCell>
        <mxCell id="Btc_0np4UFDnGC-fJ4G9-258" value="Ответ бота: &lt;br&gt;заявка будет обработана в течении 24 часов" style="rounded=1;whiteSpace=wrap;html=1;align=left;labelBackgroundColor=none;fillColor=#182E3E;strokeColor=#FFFFFF;fontColor=#FFFFFF;arcSize=9;" parent="Btc_0np4UFDnGC-fJ4G9-1" vertex="1">
          <mxGeometry x="364" y="19093" width="170" height="80" as="geometry" />
        </mxCell>
        <mxCell id="Btc_0np4UFDnGC-fJ4G9-259" style="edgeStyle=orthogonalEdgeStyle;rounded=0;orthogonalLoop=1;jettySize=auto;html=1;entryX=0.478;entryY=-0.01;entryDx=0;entryDy=0;entryPerimeter=0;" parent="Btc_0np4UFDnGC-fJ4G9-1" source="Btc_0np4UFDnGC-fJ4G9-257" target="Btc_0np4UFDnGC-fJ4G9-148" edge="1">
          <mxGeometry relative="1" as="geometry" />
        </mxCell>
        <mxCell id="Btc_0np4UFDnGC-fJ4G9-260" value="Да" style="edgeLabel;html=1;align=center;verticalAlign=middle;resizable=0;points=[];" parent="Btc_0np4UFDnGC-fJ4G9-259" vertex="1" connectable="0">
          <mxGeometry x="-0.4585" relative="1" as="geometry">
            <mxPoint x="-54" as="offset" />
          </mxGeometry>
        </mxCell>
        <mxCell id="V3_IDay-q5nCG4edSz4D-1" style="edgeStyle=orthogonalEdgeStyle;rounded=0;orthogonalLoop=1;jettySize=auto;html=1;" parent="Btc_0np4UFDnGC-fJ4G9-1" source="V3_IDay-q5nCG4edSz4D-0" target="Btc_0np4UFDnGC-fJ4G9-147" edge="1">
          <mxGeometry relative="1" as="geometry" />
        </mxCell>
        <mxCell id="V3_IDay-q5nCG4edSz4D-0" value="Основание 02,&lt;br&gt;без ДОС" style="rounded=1;whiteSpace=wrap;html=1;labelBackgroundColor=none;fillColor=#182E3E;strokeColor=#FFFFFF;fontColor=#FFFFFF;align=left;arcSize=13;" parent="Btc_0np4UFDnGC-fJ4G9-1" vertex="1">
          <mxGeometry x="212" y="18831" width="170" height="70" as="geometry" />
        </mxCell>
      </root>
    </mxGraphModel>
  </diagram>
  <diagram name="Сценарий 1.3" id="kZNeH1YEmH-uWsHYM-84">
    <mxGraphModel dx="1434" dy="746" grid="1" gridSize="10" guides="1" tooltips="1" connect="1" arrows="1" fold="1" page="1" pageScale="1" pageWidth="827" pageHeight="1169" background="#ffffff" math="0" shadow="0">
      <root>
        <mxCell id="ug26NL9aFWZKzyd4mFxP-0" />
        <mxCell id="ug26NL9aFWZKzyd4mFxP-1" parent="ug26NL9aFWZKzyd4mFxP-0" />
        <mxCell id="ug26NL9aFWZKzyd4mFxP-46" value="Сценарий 1.3 (ТС, основание 3)&amp;nbsp;" style="text;html=1;strokeColor=none;fillColor=none;align=left;verticalAlign=middle;whiteSpace=wrap;rounded=0;fontColor=#000000;fontSize=24;" parent="ug26NL9aFWZKzyd4mFxP-1" vertex="1">
          <mxGeometry x="9.75" y="10" width="750.5" height="30" as="geometry" />
        </mxCell>
        <mxCell id="yipuoukzCAozHPyzpWcZ-1" style="edgeStyle=orthogonalEdgeStyle;rounded=0;orthogonalLoop=1;jettySize=auto;html=1;exitX=1;exitY=0.5;exitDx=0;exitDy=0;entryX=0.5;entryY=0;entryDx=0;entryDy=0;" edge="1" parent="ug26NL9aFWZKzyd4mFxP-1" source="ug26NL9aFWZKzyd4mFxP-48" target="BbU6-E0qxsUAfb5e7yN3-30">
          <mxGeometry relative="1" as="geometry" />
        </mxCell>
        <mxCell id="ug26NL9aFWZKzyd4mFxP-48" value="Основание 03" style="rounded=1;whiteSpace=wrap;html=1;labelBackgroundColor=none;fillColor=#182E3E;strokeColor=#FFFFFF;fontColor=#FFFFFF;align=center;" parent="ug26NL9aFWZKzyd4mFxP-1" vertex="1">
          <mxGeometry x="264.75" y="73" width="170" height="70" as="geometry" />
        </mxCell>
        <mxCell id="ug26NL9aFWZKzyd4mFxP-49" style="edgeStyle=orthogonalEdgeStyle;rounded=0;orthogonalLoop=1;jettySize=auto;html=1;entryX=0;entryY=0.5;entryDx=0;entryDy=0;" parent="ug26NL9aFWZKzyd4mFxP-1" source="ug26NL9aFWZKzyd4mFxP-50" target="ug26NL9aFWZKzyd4mFxP-48" edge="1">
          <mxGeometry relative="1" as="geometry" />
        </mxCell>
        <mxCell id="ug26NL9aFWZKzyd4mFxP-50" value="Сценарий 1.3 Оставляем до обновления" style="ellipse;whiteSpace=wrap;html=1;aspect=fixed;labelBackgroundColor=none;fillColor=none;strokeColor=#000000;fontColor=#000000;" parent="ug26NL9aFWZKzyd4mFxP-1" vertex="1">
          <mxGeometry x="9.75" y="53" width="110" height="110" as="geometry" />
        </mxCell>
        <mxCell id="4W4IzEo_gPGO6Py8a_ZU-0" value="Нет" style="edgeStyle=orthogonalEdgeStyle;rounded=0;orthogonalLoop=1;jettySize=auto;html=1;entryX=0.5;entryY=0;entryDx=0;entryDy=0;" edge="1" parent="ug26NL9aFWZKzyd4mFxP-1" source="BbU6-E0qxsUAfb5e7yN3-30" target="yipuoukzCAozHPyzpWcZ-3">
          <mxGeometry x="-0.6705" relative="1" as="geometry">
            <mxPoint as="offset" />
          </mxGeometry>
        </mxCell>
        <mxCell id="BbU6-E0qxsUAfb5e7yN3-30" value="&lt;span style=&quot;background-color: rgb(24, 46, 62);&quot;&gt;Сведения по идентификационному номеру об уплате УС есть в &quot;попрошайке&quot; ФТС СИССТЕМА ДЕЛАЕТ ЗАПРОС&lt;/span&gt;" style="rhombus;whiteSpace=wrap;html=1;fillColor=#f8cecc;strokeColor=#b85450;fontColor=#FFFFFF;" vertex="1" parent="ug26NL9aFWZKzyd4mFxP-1">
          <mxGeometry x="384.75" y="163" width="150" height="140" as="geometry" />
        </mxCell>
        <mxCell id="GzfKKQitq0ktqAlUcBZP-2" value="Да" style="edgeStyle=orthogonalEdgeStyle;rounded=0;orthogonalLoop=1;jettySize=auto;html=1;exitX=0;exitY=0.5;exitDx=0;exitDy=0;entryX=0.5;entryY=0;entryDx=0;entryDy=0;" edge="1" parent="ug26NL9aFWZKzyd4mFxP-1" source="BbU6-E0qxsUAfb5e7yN3-30" target="4W4IzEo_gPGO6Py8a_ZU-5">
          <mxGeometry x="-0.7549" relative="1" as="geometry">
            <mxPoint x="374.75" y="200.1875" as="sourcePoint" />
            <mxPoint x="349.74976815013247" y="317.25" as="targetPoint" />
            <mxPoint as="offset" />
          </mxGeometry>
        </mxCell>
        <mxCell id="4W4IzEo_gPGO6Py8a_ZU-2" value="РК, КР, РБ" style="edgeStyle=orthogonalEdgeStyle;rounded=0;orthogonalLoop=1;jettySize=auto;html=1;exitX=0;exitY=0.5;exitDx=0;exitDy=0;entryX=0.25;entryY=0;entryDx=0;entryDy=0;" edge="1" parent="ug26NL9aFWZKzyd4mFxP-1" source="4W4IzEo_gPGO6Py8a_ZU-5" target="4W4IzEo_gPGO6Py8a_ZU-3">
          <mxGeometry x="-0.8591" relative="1" as="geometry">
            <mxPoint x="269.24976815013247" y="357.1875" as="sourcePoint" />
            <mxPoint x="80" y="451" as="targetPoint" />
            <mxPoint as="offset" />
          </mxGeometry>
        </mxCell>
        <mxCell id="yipuoukzCAozHPyzpWcZ-3" value="Ответ бота: Сведения об уплате УС отсутствуют" style="rounded=1;whiteSpace=wrap;html=1;align=left;labelBackgroundColor=none;fillColor=#182E3E;strokeColor=#FFFFFF;fontColor=#FFFFFF;arcSize=9;" vertex="1" parent="ug26NL9aFWZKzyd4mFxP-1">
          <mxGeometry x="588" y="265" width="120" height="74" as="geometry" />
        </mxCell>
        <mxCell id="4W4IzEo_gPGO6Py8a_ZU-3" value="Ответ бота:&amp;nbsp;&lt;br&gt;необходимо создать запрос в ЦОЗ. Требуется дополнительный анализ&amp;nbsp;" style="rounded=1;whiteSpace=wrap;html=1;align=left;labelBackgroundColor=none;fillColor=#182E3E;strokeColor=#FFFFFF;fontColor=#FFFFFF;arcSize=9;" vertex="1" parent="ug26NL9aFWZKzyd4mFxP-1">
          <mxGeometry x="60" y="869" width="180" height="90" as="geometry" />
        </mxCell>
        <mxCell id="4W4IzEo_gPGO6Py8a_ZU-7" value="РФ" style="edgeStyle=orthogonalEdgeStyle;rounded=0;orthogonalLoop=1;jettySize=auto;html=1;exitX=0.5;exitY=1;exitDx=0;exitDy=0;entryX=0.5;entryY=0;entryDx=0;entryDy=0;" edge="1" parent="ug26NL9aFWZKzyd4mFxP-1" source="4W4IzEo_gPGO6Py8a_ZU-5" target="4W4IzEo_gPGO6Py8a_ZU-6">
          <mxGeometry relative="1" as="geometry" />
        </mxCell>
        <mxCell id="4W4IzEo_gPGO6Py8a_ZU-10" value="РА" style="edgeStyle=orthogonalEdgeStyle;rounded=0;orthogonalLoop=1;jettySize=auto;html=1;exitX=1;exitY=0.5;exitDx=0;exitDy=0;entryX=0.5;entryY=0;entryDx=0;entryDy=0;" edge="1" parent="ug26NL9aFWZKzyd4mFxP-1" source="4W4IzEo_gPGO6Py8a_ZU-5" target="4W4IzEo_gPGO6Py8a_ZU-9">
          <mxGeometry relative="1" as="geometry" />
        </mxCell>
        <mxCell id="4W4IzEo_gPGO6Py8a_ZU-5" value="Запрос сведений&amp;nbsp;&lt;br style=&quot;border-color: var(--border-color);&quot;&gt;&lt;span style=&quot;background-color: rgb(24, 46, 62);&quot;&gt;о регистрации в нац сегментах&lt;/span&gt;" style="rhombus;whiteSpace=wrap;html=1;fillColor=#182E3E;strokeColor=none;fontColor=#FFFFFF;" vertex="1" parent="ug26NL9aFWZKzyd4mFxP-1">
          <mxGeometry x="162.75" y="288" width="150" height="140" as="geometry" />
        </mxCell>
        <mxCell id="4W4IzEo_gPGO6Py8a_ZU-8" value="Нет" style="edgeStyle=orthogonalEdgeStyle;rounded=0;orthogonalLoop=1;jettySize=auto;html=1;entryX=0.5;entryY=0;entryDx=0;entryDy=0;exitX=0;exitY=0.5;exitDx=0;exitDy=0;" edge="1" parent="ug26NL9aFWZKzyd4mFxP-1" source="4W4IzEo_gPGO6Py8a_ZU-6" target="4W4IzEo_gPGO6Py8a_ZU-3">
          <mxGeometry x="-0.8268" relative="1" as="geometry">
            <mxPoint as="offset" />
          </mxGeometry>
        </mxCell>
        <mxCell id="1F8FdOjScsxdNWKaJ2Ci-4" value="Да" style="edgeStyle=orthogonalEdgeStyle;rounded=0;orthogonalLoop=1;jettySize=auto;html=1;exitX=1;exitY=0.5;exitDx=0;exitDy=0;entryX=0.5;entryY=0;entryDx=0;entryDy=0;" edge="1" parent="ug26NL9aFWZKzyd4mFxP-1" source="4W4IzEo_gPGO6Py8a_ZU-6" target="1F8FdOjScsxdNWKaJ2Ci-3">
          <mxGeometry x="-0.7032" relative="1" as="geometry">
            <mxPoint as="offset" />
          </mxGeometry>
        </mxCell>
        <mxCell id="4W4IzEo_gPGO6Py8a_ZU-6" value="&lt;span style=&quot;background-color: rgb(24, 46, 62);&quot;&gt;Проверка сайта ГИБДД &lt;br&gt;на наличие сведений о регистрации&lt;/span&gt;" style="rhombus;whiteSpace=wrap;html=1;fillColor=#182E3E;strokeColor=none;fontColor=#FFFFFF;" vertex="1" parent="ug26NL9aFWZKzyd4mFxP-1">
          <mxGeometry x="162.75" y="460" width="150" height="140" as="geometry" />
        </mxCell>
        <mxCell id="1F8FdOjScsxdNWKaJ2Ci-2" value="Нет" style="edgeStyle=orthogonalEdgeStyle;rounded=0;orthogonalLoop=1;jettySize=auto;html=1;exitX=0;exitY=0.5;exitDx=0;exitDy=0;entryX=0.5;entryY=0;entryDx=0;entryDy=0;" edge="1" parent="ug26NL9aFWZKzyd4mFxP-1" source="4W4IzEo_gPGO6Py8a_ZU-9" target="1F8FdOjScsxdNWKaJ2Ci-1">
          <mxGeometry x="-0.5385" relative="1" as="geometry">
            <mxPoint as="offset" />
          </mxGeometry>
        </mxCell>
        <mxCell id="1F8FdOjScsxdNWKaJ2Ci-10" value="Да" style="edgeStyle=orthogonalEdgeStyle;rounded=0;orthogonalLoop=1;jettySize=auto;html=1;entryX=0.5;entryY=0;entryDx=0;entryDy=0;" edge="1" parent="ug26NL9aFWZKzyd4mFxP-1" source="4W4IzEo_gPGO6Py8a_ZU-9" target="1F8FdOjScsxdNWKaJ2Ci-8">
          <mxGeometry relative="1" as="geometry" />
        </mxCell>
        <mxCell id="4W4IzEo_gPGO6Py8a_ZU-9" value="&lt;span style=&quot;background-color: rgb(24, 46, 62);&quot;&gt;Проверка на наличие&amp;nbsp;&lt;br&gt;сведений в сервисе&lt;br&gt;по рег. данным&lt;br&gt;&lt;/span&gt;" style="rhombus;whiteSpace=wrap;html=1;fillColor=#182E3E;strokeColor=none;fontColor=#FFFFFF;" vertex="1" parent="ug26NL9aFWZKzyd4mFxP-1">
          <mxGeometry x="584" y="391" width="150" height="140" as="geometry" />
        </mxCell>
        <mxCell id="1F8FdOjScsxdNWKaJ2Ci-1" value="Ответ бота: &lt;br&gt;необходимо создать запрос в ЦОЗ. Требуется дополнительный анализ&amp;nbsp;" style="rounded=1;whiteSpace=wrap;html=1;align=left;labelBackgroundColor=none;fillColor=#182E3E;strokeColor=#FFFFFF;fontColor=#FFFFFF;arcSize=9;" vertex="1" parent="ug26NL9aFWZKzyd4mFxP-1">
          <mxGeometry x="412" y="489" width="184" height="90" as="geometry" />
        </mxCell>
        <mxCell id="1F8FdOjScsxdNWKaJ2Ci-5" value="Нет" style="edgeStyle=orthogonalEdgeStyle;rounded=0;orthogonalLoop=1;jettySize=auto;html=1;exitX=0;exitY=0.5;exitDx=0;exitDy=0;entryX=0.75;entryY=0;entryDx=0;entryDy=0;" edge="1" parent="ug26NL9aFWZKzyd4mFxP-1" source="1F8FdOjScsxdNWKaJ2Ci-3" target="4W4IzEo_gPGO6Py8a_ZU-3">
          <mxGeometry x="-0.6092" relative="1" as="geometry">
            <mxPoint x="240" y="799" as="targetPoint" />
            <mxPoint as="offset" />
          </mxGeometry>
        </mxCell>
        <mxCell id="1F8FdOjScsxdNWKaJ2Ci-7" value="Да" style="edgeStyle=orthogonalEdgeStyle;rounded=0;orthogonalLoop=1;jettySize=auto;html=1;exitX=1;exitY=0.5;exitDx=0;exitDy=0;entryX=0.5;entryY=0;entryDx=0;entryDy=0;" edge="1" parent="ug26NL9aFWZKzyd4mFxP-1" source="1F8FdOjScsxdNWKaJ2Ci-3" target="1F8FdOjScsxdNWKaJ2Ci-6">
          <mxGeometry relative="1" as="geometry" />
        </mxCell>
        <mxCell id="1F8FdOjScsxdNWKaJ2Ci-3" value="Последнее рег. действие снятие с учета в РФ с вывозом из РФ?" style="rhombus;whiteSpace=wrap;html=1;fillColor=#182E3E;strokeColor=none;fontColor=#FFFFFF;" vertex="1" parent="ug26NL9aFWZKzyd4mFxP-1">
          <mxGeometry x="264" y="739" width="150" height="140" as="geometry" />
        </mxCell>
        <mxCell id="EfKvFKtT9e_9RrkljMWA-1" style="edgeStyle=orthogonalEdgeStyle;rounded=0;orthogonalLoop=1;jettySize=auto;html=1;" edge="1" parent="ug26NL9aFWZKzyd4mFxP-1" source="1F8FdOjScsxdNWKaJ2Ci-6" target="EfKvFKtT9e_9RrkljMWA-0">
          <mxGeometry relative="1" as="geometry" />
        </mxCell>
        <mxCell id="1F8FdOjScsxdNWKaJ2Ci-6" value="Ответ бота: &lt;br&gt;статус электронного паспорта изменится в течении 24 часов" style="rounded=1;whiteSpace=wrap;html=1;align=left;labelBackgroundColor=none;fillColor=#182E3E;strokeColor=#FFFFFF;fontColor=#FFFFFF;arcSize=9;" vertex="1" parent="ug26NL9aFWZKzyd4mFxP-1">
          <mxGeometry x="366" y="869" width="190" height="90" as="geometry" />
        </mxCell>
        <mxCell id="1F8FdOjScsxdNWKaJ2Ci-12" value="Да" style="edgeStyle=orthogonalEdgeStyle;rounded=0;orthogonalLoop=1;jettySize=auto;html=1;exitX=1;exitY=0.5;exitDx=0;exitDy=0;entryX=0.5;entryY=0;entryDx=0;entryDy=0;" edge="1" parent="ug26NL9aFWZKzyd4mFxP-1" source="1F8FdOjScsxdNWKaJ2Ci-8" target="1F8FdOjScsxdNWKaJ2Ci-11">
          <mxGeometry relative="1" as="geometry" />
        </mxCell>
        <mxCell id="1F8FdOjScsxdNWKaJ2Ci-14" style="edgeStyle=orthogonalEdgeStyle;rounded=0;orthogonalLoop=1;jettySize=auto;html=1;exitX=0;exitY=0.5;exitDx=0;exitDy=0;entryX=0.5;entryY=0;entryDx=0;entryDy=0;" edge="1" parent="ug26NL9aFWZKzyd4mFxP-1" source="1F8FdOjScsxdNWKaJ2Ci-8" target="1F8FdOjScsxdNWKaJ2Ci-13">
          <mxGeometry relative="1" as="geometry" />
        </mxCell>
        <mxCell id="1F8FdOjScsxdNWKaJ2Ci-8" value="&lt;span style=&quot;background-color: rgb(24, 46, 62);&quot;&gt;ТС входит в список 300 исключений?&lt;/span&gt;" style="rhombus;whiteSpace=wrap;html=1;fillColor=#182E3E;strokeColor=none;fontColor=#FFFFFF;" vertex="1" parent="ug26NL9aFWZKzyd4mFxP-1">
          <mxGeometry x="584" y="570" width="150" height="140" as="geometry" />
        </mxCell>
        <mxCell id="1F8FdOjScsxdNWKaJ2Ci-11" value="Ответ бота:&amp;nbsp;&lt;br&gt;ТС не является товаром ЕАЭС" style="rounded=1;whiteSpace=wrap;html=1;align=left;labelBackgroundColor=none;fillColor=#182E3E;strokeColor=#FFFFFF;fontColor=#FFFFFF;arcSize=9;" vertex="1" parent="ug26NL9aFWZKzyd4mFxP-1">
          <mxGeometry x="700" y="707" width="120" height="90" as="geometry" />
        </mxCell>
        <mxCell id="1F8FdOjScsxdNWKaJ2Ci-13" value="Ответ бота:&amp;nbsp;&lt;br&gt;&lt;br style=&quot;border-color: var(--border-color);&quot;&gt;Действие бота:&amp;nbsp;" style="rounded=1;whiteSpace=wrap;html=1;align=left;labelBackgroundColor=none;fillColor=#FF0000;strokeColor=#FFFFFF;fontColor=#FFFFFF;arcSize=9;" vertex="1" parent="ug26NL9aFWZKzyd4mFxP-1">
          <mxGeometry x="480" y="707" width="140" height="90" as="geometry" />
        </mxCell>
        <mxCell id="ynZdRrADZjC_7upr1jzK-0" value="До особого комментария!" style="rounded=1;whiteSpace=wrap;html=1;rotation=-45;strokeColor=#660000;fillColor=#660000;fontSize=23;fontColor=#FFFFFF;" vertex="1" parent="ug26NL9aFWZKzyd4mFxP-1">
          <mxGeometry y="420" width="750" height="60" as="geometry" />
        </mxCell>
        <mxCell id="EfKvFKtT9e_9RrkljMWA-0" value="Действие бота: &lt;br&gt;инициация внесения сведений в электронный паспорт &quot;Утиль сбор не уплачивается&quot;" style="rounded=1;whiteSpace=wrap;html=1;align=left;labelBackgroundColor=none;fillColor=#182E3E;strokeColor=#FFFFFF;fontColor=#FFFFFF;arcSize=9;" vertex="1" parent="ug26NL9aFWZKzyd4mFxP-1">
          <mxGeometry x="366" y="990" width="190" height="90" as="geometry" />
        </mxCell>
      </root>
    </mxGraphModel>
  </diagram>
  <diagram name="Сценарий 1.4" id="rtwqCqbMBzw4QoIcIblM">
    <mxGraphModel dx="1434" dy="-6268" grid="1" gridSize="10" guides="1" tooltips="1" connect="1" arrows="1" fold="1" page="1" pageScale="1" pageWidth="827" pageHeight="1169" background="#ffffff" math="0" shadow="0">
      <root>
        <mxCell id="HauI1gYROYj5NIHftNBr-0" />
        <mxCell id="HauI1gYROYj5NIHftNBr-1" parent="HauI1gYROYj5NIHftNBr-0" />
        <mxCell id="iGdcraBmcBKO7B6ifPw8-0" style="edgeStyle=orthogonalEdgeStyle;rounded=0;orthogonalLoop=1;jettySize=auto;html=1;entryX=0.5;entryY=0;entryDx=0;entryDy=0;" parent="HauI1gYROYj5NIHftNBr-1" source="HauI1gYROYj5NIHftNBr-4" target="HauI1gYROYj5NIHftNBr-49" edge="1">
          <mxGeometry relative="1" as="geometry" />
        </mxCell>
        <mxCell id="HauI1gYROYj5NIHftNBr-4" value="Основание 4" style="rounded=1;whiteSpace=wrap;html=1;labelBackgroundColor=none;fillColor=#182E3E;strokeColor=#FFFFFF;fontColor=#FFFFFF;align=center;" parent="HauI1gYROYj5NIHftNBr-1" vertex="1">
          <mxGeometry x="329" y="7099" width="170" height="70" as="geometry" />
        </mxCell>
        <mxCell id="HauI1gYROYj5NIHftNBr-5" style="edgeStyle=orthogonalEdgeStyle;rounded=0;orthogonalLoop=1;jettySize=auto;html=1;exitX=1;exitY=0.5;exitDx=0;exitDy=0;" parent="HauI1gYROYj5NIHftNBr-1" source="HauI1gYROYj5NIHftNBr-6" target="HauI1gYROYj5NIHftNBr-4" edge="1">
          <mxGeometry relative="1" as="geometry" />
        </mxCell>
        <mxCell id="HauI1gYROYj5NIHftNBr-6" value="Сценарий 1.4" style="ellipse;whiteSpace=wrap;html=1;aspect=fixed;labelBackgroundColor=none;fillColor=none;strokeColor=#000000;fontColor=#000000;" parent="HauI1gYROYj5NIHftNBr-1" vertex="1">
          <mxGeometry x="97" y="7079" width="110" height="110" as="geometry" />
        </mxCell>
        <mxCell id="HauI1gYROYj5NIHftNBr-49" value="&lt;div style=&quot;text-align: left;&quot;&gt;&lt;span style=&quot;background-color: initial;&quot;&gt;Ответ бота:&amp;nbsp;&lt;/span&gt;&lt;/div&gt;&lt;div style=&quot;text-align: left;&quot;&gt;&lt;span style=&quot;background-color: initial;&quot;&gt;обратитесь в УО оформившую электронный паспорт, на предмет оформления запроса с приложенными документами&lt;/span&gt;&lt;/div&gt;" style="rounded=1;whiteSpace=wrap;html=1;align=center;labelBackgroundColor=none;fillColor=#182E3E;strokeColor=#FFFFFF;fontColor=#FFFFFF;arcSize=8;" parent="HauI1gYROYj5NIHftNBr-1" vertex="1">
          <mxGeometry x="329" y="7215" width="170" height="170" as="geometry" />
        </mxCell>
        <mxCell id="0A5OUSeEK-JRGvqcvCAr-1" value="Сценарий 1.4 (ТС, основание 4)" style="text;html=1;strokeColor=none;fillColor=none;align=left;verticalAlign=middle;whiteSpace=wrap;rounded=0;fontColor=#000000;fontSize=24;" parent="HauI1gYROYj5NIHftNBr-1" vertex="1">
          <mxGeometry y="7030" width="790" height="30" as="geometry" />
        </mxCell>
        <mxCell id="3lJOIvZtEAQqBsv66kaR-0" value="Добавть проверку писем в реестре и заявок в ЦОЗ" style="whiteSpace=wrap;html=1;shape=mxgraph.basic.roundRectCallout;dx=22;dy=24;size=5;boundedLbl=1;rotation=20;align=left;fillColor=#f8cecc;strokeColor=#b85450;" vertex="1" parent="HauI1gYROYj5NIHftNBr-1">
          <mxGeometry x="509.1" y="7260.13" width="130" height="130" as="geometry" />
        </mxCell>
      </root>
    </mxGraphModel>
  </diagram>
</mxfile>
